<?xml version="1.0" encoding="utf-8"?>
<!-- Generator: Adobe Illustrator 21.1.0, SVG Export Plug-In . SVG Version: 6.00 Build 0)  -->
<svg version="1.1" id="Слой_1" xmlns="http://www.w3.org/2000/svg" xmlns:xlink="http://www.w3.org/1999/xlink" x="0px" y="0px"
	 viewBox="0 0 16 16" style="enable-background:new 0 0 16 16;" xml:space="preserve">
<style type="text/css">
	.st0{fill:none;}
</style>
<rect class="st0" width="16" height="16"/>
<g>
	<path d="M7.2,12.6l-1.9,1.9c-1.1,1.1-2.8,1.1-3.9,0c-1.1-1.1-1.1-2.8,0-3.9l1.9-1.9c0.8-0.8,2.1-1,3.1-0.5L7,7.7
		C5.7,6.9,4,7.1,2.9,8.2L1,10.1c-1.3,1.3-1.3,3.5,0,4.9c1.3,1.3,3.5,1.3,4.9,0l1.9-1.9C8.9,12,9.1,10.3,8.3,9L7.8,9.5
		C8.3,10.5,8.1,11.8,7.2,12.6z"/>
	<path d="M10.1,1L8.2,2.9C7.1,4,6.9,5.7,7.7,7l0.5-0.5c-0.5-1-0.3-2.3,0.5-3.1l1.9-1.9c1.1-1.1,2.8-1.1,3.9,0c1.1,1.1,1.1,2.8,0,3.9
		l-1.9,1.9c-0.8,0.8-2.1,1-3.1,0.5L9,8.3c1.3,0.7,3,0.6,4.1-0.6L15,5.9c1.3-1.3,1.3-3.5,0-4.9C13.7-0.3,11.5-0.3,10.1,1z"/>
	<rect x="4.2" y="7.7" transform="matrix(0.7071 -0.7071 0.7071 0.7071 -3.3228 8.0217)" width="7.6" height="0.7"/>
</g>
</svg>
