<?xml version="1.0" encoding="utf-8"?>
<!-- Generator: Adobe Illustrator 21.1.0, SVG Export Plug-In . SVG Version: 6.00 Build 0)  -->
<svg version="1.1" id="Слой_1" xmlns="http://www.w3.org/2000/svg" xmlns:xlink="http://www.w3.org/1999/xlink" x="0px" y="0px"
	 viewBox="0 0 72 72" style="enable-background:new 0 0 72 72;" xml:space="preserve">
<style type="text/css">
	.st0{fill:#4288C7;}
	.st1{fill:none;}
</style>
<g>
	<path class="st0" d="M55,55.2c-7.5-4.5-10.8-6.2-11.4-6.5l0-6.9c1.4-1.8,2-3.3,2.4-4.4c0.1-0.2,0.2-0.4,0.2-0.6
		c0.8-0.1,1.6-0.6,2.4-1.4c1.3-1.3,2.7-5.4,1.9-7.8c-0.2-0.7-0.7-1.2-1.2-1.5c0.9-5.9,0.1-10.1-2.2-12.8c-2.1-2.5-5.6-3.7-10.4-3.7
		c-0.3,0-0.5,0-0.7,0c-0.2,0-0.5,0-0.7,0c-4.8,0-8.3,1.3-10.4,3.7c-2.3,2.7-3,6.9-2.2,12.8c-0.6,0.3-1,0.8-1.2,1.5
		c-0.9,2.4,0.5,6.5,1.9,7.8c0.8,0.8,1.6,1.3,2.4,1.4c0.1,0.2,0.2,0.4,0.2,0.6c0.4,1.1,1,2.6,2.4,4.4l0,6.9c-0.5,0.3-3.9,2-11.4,6.5
		C8.3,60.4,9.9,65.7,10,65.9l0.2,0.6h25.7H36h26.1l0,0C62.1,64.9,63.6,60.4,55,55.2z M27.3,36.8c-0.2-0.5-0.3-0.9-0.5-1.2l-0.2-0.5
		l-0.5,0c-0.3,0-0.9-0.2-1.7-1c-0.9-0.9-2.1-4.4-1.5-6.1c0.2-0.5,0.5-0.6,0.7-0.6l0.9-0.1l-0.1-0.9c-0.9-5.8-0.4-9.8,1.7-12.2
		c1.8-2.1,4.8-3.2,9.2-3.2c0.2,0,0.5,0,0.7,0v0c0,0,0,0,0.1,0c0,0,0,0,0.1,0v0c0.2,0,0.4,0,0.7,0c4.4,0,7.4,1,9.2,3.2
		c2.1,2.4,2.6,6.4,1.7,12.2l-0.1,0.9l0.9,0.1c0.2,0,0.5,0.1,0.7,0.6c0.6,1.7-0.5,5.2-1.5,6.1c-0.7,0.7-1.3,1-1.7,1l-0.5,0L45,35.6
		c-0.2,0.3-0.3,0.7-0.5,1.2c-0.3,0.7-0.5,1.5-1.1,2.4c-0.2,0.3-0.4,0.6-0.6,0.9c-0.2,0.3-0.5,0.7-0.8,1.1c-0.3,0.4-3.2,2.5-6,2.5
		c-0.2,0,0.8,0,0,0c-2.8,0-5.8-2.2-6.2-2.5c-0.3-0.4-0.6-0.7-0.8-1.1c-0.2-0.3-0.4-0.6-0.6-0.9C27.9,38.3,27.6,37.5,27.3,36.8z
		 M36,51.8c-3,0-5.5-1.4-6.2-2.2v-6.1c0.5,0.4,3.1,1.8,6.2,1.8c0.2,0-0.2,0,0,0c3.1,0,5.6-1.3,6-1.8v6.1
		C41.3,50.5,39.1,51.8,36,51.8C35.3,51.8,36.3,51.8,36,51.8z M60.4,64.9H36h-0.1H11.5c-0.1-1.3,0.3-4.7,6.3-8.3
		c5.9-3.5,9.2-5.4,10.6-6.1c0,0,0.1,0,0.1-0.1c0.2,0.3,0.5,0.6,0.9,0.9c0.3,0.2,0.6,0.5,0.9,0.7c1.1,0.7,3.6,1.4,5.8,1.4
		c0.3,0-0.7,0,0,0c2.2,0,4.5-0.6,5.7-1.4c0.4-0.2,0.7-0.5,0.9-0.7c0.4-0.3,0.7-0.7,0.9-0.9c0,0,0.1,0,0.1,0.1
		c1.4,0.7,4.7,2.6,10.6,6.1C60.1,60.2,60.5,63.6,60.4,64.9z"/>
	<rect class="st1" width="72" height="72"/>
</g>
</svg>
