<svg xmlns="http://www.w3.org/2000/svg" viewBox="0 0 32.85 38.98"><title>Ресурс 1</title><g id="daedc6bd-64f4-477e-a832-6f4596f0a4e8" data-name="Слой 2"><g id="07301a8e-2c49-4aa5-8671-460b7a6af8c3" data-name="Слой 1"><path d="M30.12,25.23c-.56,7.61-6.94,13.15-14.74,13.15A14.52,14.52,0,0,1,.6,24.14,14,14,0,0,1,5.7,13.38" style="fill:none;stroke:#c6c2c2;stroke-linecap:round;stroke-miterlimit:10;stroke-width:1.20000004768372px"/><path d="M32.39,10.07h-.46V1.37A1.37,1.37,0,0,0,30.56,0H7.66A1.38,1.38,0,0,0,6.29,1.37v8.7H5.83a.44.44,0,0,0-.46.46v4.58a.43.43,0,0,0,.46.46h.46v8.7a1.38,1.38,0,0,0,1.37,1.38h22.9a1.41,1.41,0,0,0,1.37-1.38v-8.7h.46a.44.44,0,0,0,.46-.46V10.53A.44.44,0,0,0,32.39,10.07ZM31,1.37v8.7H26.87a2.91,2.91,0,0,0-.25-1,2.54,2.54,0,0,0-2.29-1.33h0A3.53,3.53,0,0,0,21.9,9.05V.92h8.66A.46.46,0,0,1,31,1.37ZM25.19,16.12l0,.05,0,0,0,0h0a1.65,1.65,0,0,1-1.3.19,2.81,2.81,0,0,1-.87-.34,2.65,2.65,0,0,1-1.35-2,2.34,2.34,0,0,0,.19-.46l1.23.92a.58.58,0,0,0,.27.09.42.42,0,0,0,.37-.18.49.49,0,0,0-.1-.64l-1.34-1,1.34-1a.51.51,0,0,0,.1-.65.49.49,0,0,0-.64-.09L21.73,12a2.45,2.45,0,0,0-.37-.74l.18-.22a3,3,0,0,0,.27-.37l0-.05c.43-.57,1.5-1.87,2.45-1.87a1.64,1.64,0,0,1,1.18.42,1.33,1.33,0,0,1,.24.36,6.59,6.59,0,0,1,.19,2v.65a14.58,14.58,0,0,1-.26,3A2.72,2.72,0,0,1,25.19,16.12Zm-4,2.34-.09.14a.12.12,0,0,0-.05,0l-1.26-3.16a2.76,2.76,0,0,0,1-.49,3.72,3.72,0,0,0,.41.76,3.54,3.54,0,0,0,.82.86l.6,1.33-.75-.14a.58.58,0,0,0-.46.23ZM16.59,18a.56.56,0,0,0-.41-.23h-.05l-.78.14.51-1.1h0A3.75,3.75,0,0,0,17.45,15a2.85,2.85,0,0,0,1,.48L17,18.68ZM13,16.17a2.22,2.22,0,0,1-.49-1.08.19.19,0,0,0,0-.07,13.85,13.85,0,0,1-.27-2.88h0v-.65a7.59,7.59,0,0,1,0-.91v0h0a2.73,2.73,0,0,1,.18-1,1.5,1.5,0,0,1,1.42-.83H14c1,.08,2.07,1.47,2.42,2l.05.05.23.32s.09.13.13.18a3.13,3.13,0,0,0-.38.78l-1.22-.92a.49.49,0,0,0-.64.09.5.5,0,0,0,.09.65l1.35,1-1.35,1a.49.49,0,0,0-.09.64.41.41,0,0,0,.37.18.58.58,0,0,0,.27-.09l1.21-.9a2.64,2.64,0,0,0,.12.4,2.7,2.7,0,0,1-1.74,2.24,2.67,2.67,0,0,1-.5.17A1.43,1.43,0,0,1,13,16.17ZM20.72,12h0l0,.05a1.74,1.74,0,0,1,.2.74v.2h0a1.72,1.72,0,0,1-.14.54.5.5,0,0,0-.23.2,1.82,1.82,0,0,1-1.55.92,1.85,1.85,0,0,1-.74-.15,1.88,1.88,0,0,1-.69-.62l0-.1a1.66,1.66,0,0,1-.27-.79h0v-.2a1.4,1.4,0,0,1,.59-1.11.51.51,0,0,0,.1-.24,1.82,1.82,0,0,1,1.14-.4A1.84,1.84,0,0,1,20.72,12Zm.22-1.75-.18.24-.05.09,0,0a2.75,2.75,0,0,0-1.35-.48H18.9a2.62,2.62,0,0,0-1.12.34l-.22.12h0l-.27-.35V.92h3.66V10.2ZM7.2,1.37A.49.49,0,0,1,7.66.92h8.75V9.11a3.74,3.74,0,0,0-2.48-1.32,2.58,2.58,0,0,0-2.29,1.32,3.31,3.31,0,0,0-.23,1H7.2ZM6.29,11h5v1.15c0,.64,0,1.6.19,2.51H6.29ZM7.2,24.27v-8.7h4.51a2.84,2.84,0,0,0,.67,1.28,2.36,2.36,0,0,0,1.6.6,2.93,2.93,0,0,0,.58-.06l-.44,1a.43.43,0,0,0,0,.46.46.46,0,0,0,.46.18L16,18.78l.41.73v5.22H7.66A.46.46,0,0,1,7.2,24.27Zm10.12-4.21a.62.62,0,0,0,.14-.19l1.65-3.61,1.42,3.61h0a.4.4,0,0,0,.36.27h.05v4.58H17.32ZM31,24.27a.46.46,0,0,1-.46.46h-8.7V19.08l.18-.3,1.14.18h.14a.56.56,0,0,0,.46-.18.43.43,0,0,0,0-.46l-.48-1a3.06,3.06,0,0,0,.89.14,2.41,2.41,0,0,0,1.69-.69,2.82,2.82,0,0,0,.64-1.19H31v8.7Zm.91-9.62H26.76a19.41,19.41,0,0,0,.18-2.56v-.55c0-.1,0-.3,0-.55h5v3.66Z" style="fill:#d14a43"/></g></g></svg>
