<svg xmlns="http://www.w3.org/2000/svg" viewBox="0 0 27.12 30.56"><title>Ресурс 1</title><g id="5eb3c95b-1c1a-415d-ac26-e0962ed106f6" data-name="Слой 2"><g id="347ceb35-c5b8-4f11-ab52-6d5f7f40af0a" data-name="Слой 1"><path d="M25.85,15.41A13.12,13.12,0,0,1,26,17.32,12.57,12.57,0,0,1,13.24,30.06a12.74,12.74,0,0,1-4-24.83" style="fill:none;stroke:#c6c2c2;stroke-linecap:round;stroke-miterlimit:10"/><path d="M18.05,7.8a.8.8,0,1,0,0,1.6.8.8,0,0,0,0-1.6Z" style="fill:#d14a43"/><path d="M18,14.34a.6.6,0,0,0-.59.59v1.73a.6.6,0,0,0,1.19,0V14.93A.6.6,0,0,0,18,14.34Z" style="fill:#d14a43"/><path d="M18,0a.6.6,0,0,0-.59.59V2.32a.6.6,0,0,0,1.19,0V.59A.6.6,0,0,0,18,0Z" style="fill:#d14a43"/><path d="M18,18a.6.6,0,0,0-.59.59v1.73a.6.6,0,0,0,1.19,0V18.56A.6.6,0,0,0,18,18Z" style="fill:#d14a43"/><path d="M18,21.6a.6.6,0,0,0-.59.59v1.73a.6.6,0,0,0,1.19,0V22.19A.6.6,0,0,0,18,21.6Z" style="fill:#d14a43"/><path d="M18,25.23a.6.6,0,0,0-.59.59v1.73a.6.6,0,0,0,1.19,0V25.82A.6.6,0,0,0,18,25.23Z" style="fill:#d14a43"/><path d="M24.89,11.72a2.21,2.21,0,0,0-1.31.43L20.9,10a3.2,3.2,0,0,0-2.29-4.54V4.22a.6.6,0,0,0-1.19,0V5.48A3.19,3.19,0,0,0,14.87,8.6a2.84,2.84,0,0,0,.07.66l-5,2.23a2.22,2.22,0,1,0-2.78,3.35l-1,4.39h0a2.23,2.23,0,0,0-2.23,2.22v.12l-2,.61c.19.36.37.72.55,1.08L4.3,22.7a2.23,2.23,0,1,0,3-3.15l1-4.45a2.23,2.23,0,0,0,2.1-2.22,1.51,1.51,0,0,0,0-.3l5-2.23a3.15,3.15,0,0,0,2,1.36V13a.6.6,0,0,0,1.19,0v-1.3A3.12,3.12,0,0,0,20.18,11l2.66,2.13a2.29,2.29,0,0,0-.17.87,2.23,2.23,0,1,0,2.22-2.23ZM6.15,22.49a1,1,0,0,1,0-2.08,1,1,0,1,1,0,2.08Zm2.08-8.57a1,1,0,1,1,1-1A1,1,0,0,1,8.23,13.92Zm9.82-3.33a2,2,0,1,1,2-2A2,2,0,0,1,18.05,10.59ZM24.89,15a1,1,0,1,1,1-1A1,1,0,0,1,24.89,15Z" style="fill:#d14a43"/></g></g></svg>
