<svg xmlns="http://www.w3.org/2000/svg" viewBox="0 0 32.86 31.98"><title>Ресурс 1</title><g id="0fd492a2-114b-4701-bbb0-dfd8fab42941" data-name="Слой 2"><g id="4fdb8697-9e9b-4d1d-b810-60617839321d" data-name="Слой 1"><path d="M8.52,6.86l-.93.37a12.68,12.68,0,0,0-7,10.64c-.5,8.55,8,15.32,16.24,13.07A13,13,0,0,0,26,16.28" style="fill:none;stroke:#c6c2c2;stroke-linecap:round;stroke-miterlimit:10;stroke-width:1.20000004768372px"/><path d="M26.06,0H9.32a1.4,1.4,0,0,0-1.4,1.4v10a1.41,1.41,0,0,0,1.4,1.41h1.09v3.74a.6.6,0,0,0,.58.59.56.56,0,0,0,.42-.18l4.15-4.15h.84a.59.59,0,0,0,.59-.59.6.6,0,0,0-.59-.59H15.28a.63.63,0,0,0-.38.17l-3.32,3.33v-3a.6.6,0,0,0-.59-.54H9.32a.23.23,0,0,1-.23-.23V1.4a.23.23,0,0,1,.23-.22H26.06a.22.22,0,0,1,.22.22V5.26a.59.59,0,0,0,.59.58.58.58,0,0,0,.59-.58V1.4A1.4,1.4,0,0,0,26.06,0Z" style="fill:#d14a43"/><path d="M31.46,7.2H19.74a1.4,1.4,0,0,0-1.4,1.4v6.85a1.41,1.41,0,0,0,1.4,1.41h7.34l3,3a.61.61,0,0,0,.64.13.6.6,0,0,0,.36-.55V16.86h.41a1.41,1.41,0,0,0,1.4-1.41V8.6A1.4,1.4,0,0,0,31.46,7.2Zm.23,8.25a.23.23,0,0,1-.23.23h-1a.58.58,0,0,0-.58.54V18l-2.14-2.14h0l0,0a.54.54,0,0,0-.39-.15H19.74a.22.22,0,0,1-.22-.23V8.6a.23.23,0,0,1,.22-.23H31.46a.24.24,0,0,1,.23.23Z" style="fill:#d14a43"/><path d="M25.6,11.44A.59.59,0,0,0,25,12a.6.6,0,0,0,.59.59.59.59,0,0,0,.59-.59A.58.58,0,0,0,25.6,11.44Z" style="fill:#d14a43"/><path d="M23,3.89H12.33a.59.59,0,0,0-.59.59.6.6,0,0,0,.59.59H23a.59.59,0,0,0,.59-.59A.58.58,0,0,0,23,3.89Z" style="fill:#d14a43"/><path d="M16.4,7.78H12.33a.59.59,0,0,0-.59.59.6.6,0,0,0,.59.59H16.4A.6.6,0,0,0,17,8.37.59.59,0,0,0,16.4,7.78Z" style="fill:#d14a43"/><path d="M22.87,11.44a.58.58,0,0,0-.59.59.59.59,0,1,0,1.17,0A.58.58,0,0,0,22.87,11.44Z" style="fill:#d14a43"/><path d="M28.33,11.44a.58.58,0,0,0-.58.59.59.59,0,1,0,.58-.59Z" style="fill:#d14a43"/></g></g></svg>
