<?xml version="1.0" encoding="utf-8"?>
<!-- Generator: Adobe Illustrator 22.1.0, SVG Export Plug-In . SVG Version: 6.00 Build 0)  -->
<svg version="1.1" id="Режим_изоляции"
	 xmlns="http://www.w3.org/2000/svg" xmlns:xlink="http://www.w3.org/1999/xlink" x="0px" y="0px" viewBox="0 0 1000 350"
	 style="enable-background:new 0 0 1000 350;" xml:space="preserve">
  <g>
    <path class="st0" d="M125.4,110.2c-37.4,0-65.8,33.7-64.5,75.7c1.2,39.5,32.1,73.6,67,71.5c-37.2-11.7-56.3-36.4-56.8-73.1
		C70.6,147.1,91.4,123.5,125.4,110.2L125.4,110.2z M114.3,147.4c13.1,11.9,26,23.5,39.4,35.6c-10.9,10.7-20.1,19.8-29.2,28.9
		c-11.5,11.5-9.6,8.3,0.1,19.3c4.9,5.6,8.1,4.6,12.8-0.3c13.1-13.6,26.8-26.6,40.2-39.9c2.3-2.3,4.4-4.9,6.4-7.2
		c-13.7-14.1-26.6-27.5-39.6-40.6C130.1,128.9,130.1,129,114.3,147.4L114.3,147.4z M51.4,184c1.2-13.6,3-19.8,4.1-23.7
		c12.2-42.4,53.4-68.8,97.6-62.5c42.5,6.1,74.5,42.9,74.5,85.7c0,42.8-32,79.6-74.6,85.6c-44.5,6.3-85.4-19.9-97.5-62.4
		C54.4,203.2,51.4,192.2,51.4,184L51.4,184z"/>
    <path class="st0" d="M152.3,316.7c65.4-12.1,109.7-59.7,115.2-120.8c3.3-36.7-6.1-69.4-29.1-98c-22.7-28.3-52.9-44.2-88-51.5
		c59.2,1.8,135.4,45.7,131.8,140.6C279.4,256.7,217.9,319.7,152.3,316.7L152.3,316.7z"/>
    <path d="M331.7,125.8h14.1l-6.9-23.8h-0.3L331.7,125.8L331.7,125.8z M349.2,137.7h-21l-3.7,12.9H309l21.5-66.5H347l21.5,66.5H353
		L349.2,137.7L349.2,137.7z"/>
    <polygon points="395.9,123.9 388.7,123.9 388.7,150.6 373.3,150.6 373.3,84.1 388.7,84.1 388.7,110.1 394,110.1 408.6,84.1
		427.8,84.1 407.2,114.2 429.6,150.6 410.8,150.6 395.9,123.9 	"/>
    <path d="M484.2,127.3l0.1,0.3c-0.3,7.8-2.6,13.8-6.9,17.9c-4.3,4.1-10.6,6.2-18.8,6.2c-8.2,0-14.9-2.5-20.1-7.6
		c-5.1-5.1-7.7-11.6-7.7-19.7v-13.9c0-8,2.5-14.6,7.4-19.7c5-5.1,11.4-7.6,19.3-7.6c8.4,0,14.8,2.1,19.3,6.4c4.4,4.2,7,10.3,7.5,18
		l-0.1,0.3h-15c-0.2-4.3-1.2-7.5-2.9-9.6c-1.7-2.1-4.7-3.2-8.8-3.2c-3.5,0-6.3,1.4-8.3,4.2c-2,2.8-3,6.5-3,11.1v14
		c0,4.6,1.1,8.3,3.3,11.2c2.2,2.8,5.2,4.2,9,4.2c3.7,0,6.4-1,7.9-3c1.6-2,2.4-5.1,2.7-9.5H484.2L484.2,127.3z"/>
    <polygon points="534.1,122.1 508,122.1 508,138.7 538.8,138.7 538.8,150.6 492.5,150.6 492.5,84.1 538.9,84.1 538.9,96 508,96
		508,110.3 534.1,110.3 534.1,122.1 	"/>
    <path d="M601.3,84.1v66.5h-15.4V96h-16.5v17.7c0,13.3-1.9,22.8-5.8,28.5c-3.9,5.6-9.7,8.5-17.5,8.5h-3.8v-11.9h1.8
		c4.2-0.5,6.9-2.3,8.1-5.6c1.2-3.2,1.8-9.7,1.8-19.5V84.1H601.3L601.3,84.1z"/>
    <polygon points="653.4,122.1 627.3,122.1 627.3,138.7 658.1,138.7 658.1,150.6 611.8,150.6 611.8,84.1 658.1,84.1 658.1,96
		627.3,96 627.3,110.3 653.4,110.3 653.4,122.1 	"/>
    <path d="M680.5,115.9h11.5c3.4,0,5.9-0.9,7.7-2.8c1.8-1.8,2.6-4.2,2.6-7.1c0-3-0.9-5.4-2.6-7.3c-1.8-1.9-4.3-2.8-7.7-2.8h-11.5
		V115.9L680.5,115.9z M680.5,127.8v22.8H665V84.1h27c7.9,0,14.1,2,18.8,6.1c4.6,4,6.9,9.3,6.9,15.8c0,6.5-2.3,11.8-6.9,15.8
		c-4.6,4-10.9,6-18.8,6H680.5L680.5,127.8z"/>
    <path d="M736.2,125.8h14.1l-6.9-23.8h-0.3L736.2,125.8L736.2,125.8z M753.7,137.7h-21l-3.7,12.9h-15.5l21.5-66.5h16.6l21.5,66.5
		h-15.5L753.7,137.7L753.7,137.7z"/>
    <polygon points="820.1,96 802.6,96 802.6,150.6 787.1,150.6 787.1,96 769.7,96 769.7,84.1 820.1,84.1 820.1,96 	"/>
    <path d="M864.7,111.3c0-4.8-1.1-8.7-3.4-11.7c-2.2-3-5.4-4.6-9.5-4.6c-4.2,0-7.4,1.5-9.6,4.5c-2.2,3-3.3,6.9-3.3,11.7v12.1
		c0,4.8,1.1,8.7,3.4,11.8c2.2,3,5.4,4.6,9.6,4.6c4.1,0,7.2-1.5,9.4-4.6c2.2-3,3.3-7,3.3-11.8V111.3L864.7,111.3z M880.1,123.3
		c0,8.2-2.6,15-7.8,20.3c-5.2,5.3-12,8-20.4,8c-8.4,0-15.3-2.7-20.5-8c-5.2-5.3-7.9-12.1-7.9-20.3v-12c0-8.2,2.6-14.9,7.8-20.2
		c5.2-5.3,12-8,20.4-8c8.4,0,15.1,2.7,20.4,8c5.2,5.3,7.9,12.1,7.9,20.2V123.3L880.1,123.3z"/>
    <path d="M904.6,115.9h11.5c3.4,0,5.9-0.9,7.7-2.8c1.8-1.8,2.6-4.2,2.6-7.1c0-3-0.9-5.4-2.6-7.3c-1.8-1.9-4.3-2.8-7.7-2.8h-11.5
		V115.9L904.6,115.9z M904.6,127.8v22.8h-15.5V84.1h27c7.9,0,14.1,2,18.8,6.1c4.6,4,6.9,9.3,6.9,15.8c0,6.5-2.3,11.8-6.9,15.8
		c-4.6,4-10.9,6-18.8,6H904.6L904.6,127.8z"/>
    <polygon points="360.3,188.3 342.7,188.3 342.7,242.9 327.2,242.9 327.2,188.3 309.8,188.3 309.8,176.4 360.3,176.4 360.3,188.3
		"/>
    <path d="M379.4,218.1h14.1l-6.9-23.8h-0.3L379.4,218.1L379.4,218.1z M396.9,230h-21l-3.7,12.9h-15.5l21.5-66.5h16.6l21.5,66.5
		h-15.5L396.9,230L396.9,230z"/>
    <polygon points="443.6,216.2 436.5,216.2 436.5,242.9 421,242.9 421,176.4 436.5,176.4 436.5,202.4 441.7,202.4 456.3,176.4
		475.5,176.4 454.9,206.5 477.3,242.9 458.5,242.9 443.6,216.2 	"/>
    <path d="M531.9,219.6l0.1,0.3c-0.3,7.8-2.6,13.8-6.9,17.9c-4.3,4.1-10.6,6.2-18.8,6.2c-8.2,0-14.9-2.5-20.1-7.6
		c-5.1-5.1-7.7-11.6-7.7-19.7v-13.9c0-8,2.5-14.6,7.4-19.7c5-5.1,11.4-7.6,19.3-7.6c8.4,0,14.8,2.1,19.3,6.4
		c4.4,4.2,7,10.3,7.5,18.1l-0.1,0.3h-15c-0.2-4.3-1.2-7.5-2.9-9.6c-1.7-2.1-4.7-3.2-8.8-3.2c-3.5,0-6.3,1.4-8.3,4.2
		c-2,2.8-3,6.5-3,11.1v14c0,4.6,1.1,8.3,3.3,11.2c2.2,2.8,5.2,4.3,9,4.3c3.7,0,6.4-1,7.9-3c1.6-2,2.4-5.1,2.7-9.5H531.9L531.9,219.6
		z"/>
    <polygon points="579.6,176.4 595,176.4 595,242.9 579.6,242.9 579.6,201.7 579.3,201.7 555,242.9 539.6,242.9 539.6,176.4
		555,176.4 555,217.6 555.2,217.6 579.6,176.4 	"/>
  </g>
</svg>
