<svg xmlns="http://www.w3.org/2000/svg" viewBox="0 0 26.48 36.15"><title>Ресурс 1</title><g id="bffc920e-b074-4127-b927-658905d1a229" data-name="Слой 2"><g id="4d5de014-80cc-4c55-a109-65ef9de93ea4" data-name="Слой 1"><path d="M25.2,18.4A12.64,12.64,0,0,1,26,22.91,12.57,12.57,0,0,1,13.24,35.65a12.74,12.74,0,0,1-4-24.83" style="fill:none;stroke:#c6c2c2;stroke-miterlimit:10"/><path d="M15.89,3.82A3.82,3.82,0,1,0,19.7,7.63,3.82,3.82,0,0,0,15.89,3.82Zm0,6.87a3.06,3.06,0,1,1,3.05-3.06A3.07,3.07,0,0,1,15.89,10.69Z" style="fill:#d14a43"/><path d="M15.89,5.34A2.3,2.3,0,0,0,13.6,7.63a.38.38,0,0,0,.76,0,1.53,1.53,0,0,1,1.53-1.52.39.39,0,0,0,0-.77Z" style="fill:#d14a43"/><path d="M17.23,19.7c-.51.8-1.07,1.69-1.34,2.09a79.48,79.48,0,0,1-5-8.62c-.15-.27-.27-.58-.42-.84A9.5,9.5,0,0,1,9,7.63a6.87,6.87,0,1,1,13.73,0,7.16,7.16,0,0,1-.49,2.68,3.32,3.32,0,0,1,.71.34,8.18,8.18,0,0,0,.55-3,7.64,7.64,0,0,0-15.27,0,10,10,0,0,0,1.49,5c.12.27.27.53.42.84a90.07,90.07,0,0,0,5.42,9.23.47.47,0,0,0,.31.16.4.4,0,0,0,.3-.19s.72-1.09,1.53-2.36A3.82,3.82,0,0,1,17.23,19.7Z" style="fill:#d14a43"/><path d="M21,13a2.45,2.45,0,1,0,2.45,2.45A2.45,2.45,0,0,0,21,13Z" style="fill:none;stroke:#d14a43;stroke-miterlimit:10;stroke-width:0.800000011920929px"/><path d="M21.17,14.14a1.47,1.47,0,0,0-1.47,1.47.24.24,0,0,0,.25.25.23.23,0,0,0,.24-.25,1,1,0,0,1,1-1,.23.23,0,0,0,.25-.24A.24.24,0,0,0,21.17,14.14Z" style="fill:#d14a43"/><path d="M21,10.52a4.92,4.92,0,0,0-4.9,4.9,6.33,6.33,0,0,0,1,3.23c.07.17.17.35.27.54a59.78,59.78,0,0,0,3.47,5.93.32.32,0,0,0,.2.1.26.26,0,0,0,.2-.13,54.07,54.07,0,0,0,3.47-5.9c.1-.19.17-.37.27-.54a6.33,6.33,0,0,0,1-3.23A4.92,4.92,0,0,0,21,10.52Z" style="fill:none;stroke:#d14a43;stroke-miterlimit:10;stroke-width:0.800000011920929px"/></g></g></svg>
