<svg xmlns="http://www.w3.org/2000/svg" viewBox="0 0 31.31 30.97"><title>Ресурс 1</title><g id="51b808ec-c946-4127-90d2-0b913c1bb731" data-name="Слой 2"><g id="14f146f1-8829-428e-9d91-07f9ca5bb99c" data-name="Слой 1"><path d="M25.2,13.22A12.56,12.56,0,0,1,26,17.73,12.57,12.57,0,0,1,13.24,30.47,12.74,12.74,0,0,1,4,9" style="fill:none;stroke:#c6c2c2;stroke-miterlimit:10"/><path d="M30.83,1.83h-8.5V.48A.49.49,0,0,0,21.85,0h-9a.49.49,0,0,0-.49.48v3.1H3.89a.49.49,0,0,0-.49.48v9.58a.49.49,0,0,0,.49.49H30.83a.49.49,0,0,0,.48-.49V2.32A.49.49,0,0,0,30.83,1.83ZM4.37,4.55h8v8.61h-8Zm9-3.58h8V13.16h-8Zm17,12.19h-8V2.8h8Z" style="fill:#d14a43"/><rect x="7.89" y="5.63" width="0.97" height="3.36" style="fill:#d14a43"/><rect x="6.18" y="5.63" width="0.97" height="3.36" style="fill:#d14a43"/><rect x="9.61" y="5.63" width="0.97" height="3.36" style="fill:#d14a43"/><rect x="16.87" y="2.15" width="0.97" height="3.36" style="fill:#d14a43"/><rect x="24.99" y="4.24" width="0.97" height="3.36" style="fill:#d14a43"/><rect x="26.71" y="4.24" width="0.97" height="3.36" style="fill:#d14a43"/></g></g></svg>
