<svg xmlns="http://www.w3.org/2000/svg" xmlns:xlink="http://www.w3.org/1999/xlink"><symbol id="icon-analysis" viewBox="0 0 24.87 24.26">
  <title>&#x420;&#x435;&#x441;&#x443;&#x440;&#x441; 1</title>
  <g id="2210bd8a-0d13-4c12-b1b2-a3e2859d1ba2" data-name="&#x421;&#x43B;&#x43E;&#x439; 2">
    <g id="fc25b724-95d9-46fd-86ea-f36d2146f21c" data-name="&#x421;&#x43B;&#x43E;&#x439; 1">
      <polyline points="5.8 0.98 5.8 17.31 24.3 17.31" style="fill:none;stroke:#d14a43;stroke-linecap:round;stroke-miterlimit:10"/>
      <path d="M24.37,17.35a12.63,12.63,0,0,1-11.13,6.41A12.74,12.74,0,0,1,.5,11C.5,7.64,2.12,2.75,5.8.5" style="fill:none;stroke:#c6c2c2;stroke-linecap:round;stroke-miterlimit:10"/>
      <line x1="8.8" y1="0.81" x2="8.8" y2="15.81" style="fill:none;stroke:#c6c2c2;stroke-linecap:round;stroke-miterlimit:10"/>
      <line x1="22.3" y1="14.31" x2="7.3" y2="14.31" style="fill:none;stroke:#c6c2c2;stroke-linecap:round;stroke-miterlimit:10"/>
      <line x1="22.3" y1="9.31" x2="7.3" y2="9.31" style="fill:none;stroke:#c6c2c2;stroke-linecap:round;stroke-miterlimit:10"/>
      <line x1="22.3" y1="4.31" x2="7.3" y2="4.31" style="fill:none;stroke:#c6c2c2;stroke-linecap:round;stroke-miterlimit:10"/>
      <line x1="12.8" y1="0.81" x2="12.8" y2="15.81" style="fill:none;stroke:#c6c2c2;stroke-linecap:round;stroke-miterlimit:10"/>
      <line x1="16.8" y1="0.81" x2="16.8" y2="15.81" style="fill:none;stroke:#c6c2c2;stroke-linecap:round;stroke-miterlimit:10"/>
      <line x1="20.8" y1="0.81" x2="20.8" y2="15.81" style="fill:none;stroke:#c6c2c2;stroke-linecap:round;stroke-miterlimit:10"/>
      <path d="M8.64,13s11.16,1.22,14-10.74" style="fill:none;stroke:#d24a43;stroke-miterlimit:10"/>
      <polygon points="24.57 4.78 24.05 5.07 22.59 2.5 20.13 4.15 19.79 3.65 22.79 1.64 24.57 4.78" style="fill:#d24a43"/>
    </g>
  </g>
</symbol><symbol id="icon-business" viewBox="0 0 26.48 36.15"><title>&#x420;&#x435;&#x441;&#x443;&#x440;&#x441; 1</title><g id="bffc920e-b074-4127-b927-658905d1a229" data-name="&#x421;&#x43B;&#x43E;&#x439; 2"><g id="4d5de014-80cc-4c55-a109-65ef9de93ea4" data-name="&#x421;&#x43B;&#x43E;&#x439; 1"><path d="M25.2,18.4A12.64,12.64,0,0,1,26,22.91,12.57,12.57,0,0,1,13.24,35.65a12.74,12.74,0,0,1-4-24.83" style="fill:none;stroke:#c6c2c2;stroke-miterlimit:10"/><path d="M15.89,3.82A3.82,3.82,0,1,0,19.7,7.63,3.82,3.82,0,0,0,15.89,3.82Zm0,6.87a3.06,3.06,0,1,1,3.05-3.06A3.07,3.07,0,0,1,15.89,10.69Z" style="fill:#d14a43"/><path d="M15.89,5.34A2.3,2.3,0,0,0,13.6,7.63a.38.38,0,0,0,.76,0,1.53,1.53,0,0,1,1.53-1.52.39.39,0,0,0,0-.77Z" style="fill:#d14a43"/><path d="M17.23,19.7c-.51.8-1.07,1.69-1.34,2.09a79.48,79.48,0,0,1-5-8.62c-.15-.27-.27-.58-.42-.84A9.5,9.5,0,0,1,9,7.63a6.87,6.87,0,1,1,13.73,0,7.16,7.16,0,0,1-.49,2.68,3.32,3.32,0,0,1,.71.34,8.18,8.18,0,0,0,.55-3,7.64,7.64,0,0,0-15.27,0,10,10,0,0,0,1.49,5c.12.27.27.53.42.84a90.07,90.07,0,0,0,5.42,9.23.47.47,0,0,0,.31.16.4.4,0,0,0,.3-.19s.72-1.09,1.53-2.36A3.82,3.82,0,0,1,17.23,19.7Z" style="fill:#d14a43"/><path d="M21,13a2.45,2.45,0,1,0,2.45,2.45A2.45,2.45,0,0,0,21,13Z" style="fill:none;stroke:#d14a43;stroke-miterlimit:10;stroke-width:0.800000011920929px"/><path d="M21.17,14.14a1.47,1.47,0,0,0-1.47,1.47.24.24,0,0,0,.25.25.23.23,0,0,0,.24-.25,1,1,0,0,1,1-1,.23.23,0,0,0,.25-.24A.24.24,0,0,0,21.17,14.14Z" style="fill:#d14a43"/><path d="M21,10.52a4.92,4.92,0,0,0-4.9,4.9,6.33,6.33,0,0,0,1,3.23c.07.17.17.35.27.54a59.78,59.78,0,0,0,3.47,5.93.32.32,0,0,0,.2.1.26.26,0,0,0,.2-.13,54.07,54.07,0,0,0,3.47-5.9c.1-.19.17-.37.27-.54a6.33,6.33,0,0,0,1-3.23A4.92,4.92,0,0,0,21,10.52Z" style="fill:none;stroke:#d14a43;stroke-miterlimit:10;stroke-width:0.800000011920929px"/></g></g></symbol><symbol id="icon-calendar" viewBox="0 0 24 24">
  <path d="M20,20h-4v-4h4V20z M14,10h-4v4h4V10z M20,10h-4v4h4V10z M8
  16H4v4h4V16z M14,16h-4v4h4V16z M8,10H4v4h4V10z M24,2v22H0V2h3
  v1c0,1.1,0.9,2,2,2s2-0.9,2-2V2h10v1c0,1.1,0.9,2,2,2s2-0.9,2-2V2H24z M22
  8H2v14h20V8z M20,1c0-0.6-0.4-1-1-1s-1,0.4-1,1v2
  c0,0.6,0.4,1,1,1s1-0.4,1-1V1z M6,3c0,0.6-0.4,1-1,1S4,3.6,4,3V1c0-0.6,0.4-1
  1-1s1,0.4,1,1V3z"/>
</symbol><symbol id="icon-experience" viewBox="0 0 31.31 30.97"><title>&#x420;&#x435;&#x441;&#x443;&#x440;&#x441; 1</title><g id="51b808ec-c946-4127-90d2-0b913c1bb731" data-name="&#x421;&#x43B;&#x43E;&#x439; 2"><g id="14f146f1-8829-428e-9d91-07f9ca5bb99c" data-name="&#x421;&#x43B;&#x43E;&#x439; 1"><path d="M25.2,13.22A12.56,12.56,0,0,1,26,17.73,12.57,12.57,0,0,1,13.24,30.47,12.74,12.74,0,0,1,4,9" style="fill:none;stroke:#c6c2c2;stroke-miterlimit:10"/><path d="M30.83,1.83h-8.5V.48A.49.49,0,0,0,21.85,0h-9a.49.49,0,0,0-.49.48v3.1H3.89a.49.49,0,0,0-.49.48v9.58a.49.49,0,0,0,.49.49H30.83a.49.49,0,0,0,.48-.49V2.32A.49.49,0,0,0,30.83,1.83ZM4.37,4.55h8v8.61h-8Zm9-3.58h8V13.16h-8Zm17,12.19h-8V2.8h8Z" style="fill:#d14a43"/><rect x="7.89" y="5.63" width="0.97" height="3.36" style="fill:#d14a43"/><rect x="6.18" y="5.63" width="0.97" height="3.36" style="fill:#d14a43"/><rect x="9.61" y="5.63" width="0.97" height="3.36" style="fill:#d14a43"/><rect x="16.87" y="2.15" width="0.97" height="3.36" style="fill:#d14a43"/><rect x="24.99" y="4.24" width="0.97" height="3.36" style="fill:#d14a43"/><rect x="26.71" y="4.24" width="0.97" height="3.36" style="fill:#d14a43"/></g></g></symbol><symbol id="icon-logo-black" viewBox="0 0 1000 350">
  <g>
    <path class="st0" d="M125.4,110.2c-37.4,0-65.8,33.7-64.5,75.7c1.2,39.5,32.1,73.6,67,71.5c-37.2-11.7-56.3-36.4-56.8-73.1
		C70.6,147.1,91.4,123.5,125.4,110.2L125.4,110.2z M114.3,147.4c13.1,11.9,26,23.5,39.4,35.6c-10.9,10.7-20.1,19.8-29.2,28.9
		c-11.5,11.5-9.6,8.3,0.1,19.3c4.9,5.6,8.1,4.6,12.8-0.3c13.1-13.6,26.8-26.6,40.2-39.9c2.3-2.3,4.4-4.9,6.4-7.2
		c-13.7-14.1-26.6-27.5-39.6-40.6C130.1,128.9,130.1,129,114.3,147.4L114.3,147.4z M51.4,184c1.2-13.6,3-19.8,4.1-23.7
		c12.2-42.4,53.4-68.8,97.6-62.5c42.5,6.1,74.5,42.9,74.5,85.7c0,42.8-32,79.6-74.6,85.6c-44.5,6.3-85.4-19.9-97.5-62.4
		C54.4,203.2,51.4,192.2,51.4,184L51.4,184z"/>
    <path class="st0" d="M152.3,316.7c65.4-12.1,109.7-59.7,115.2-120.8c3.3-36.7-6.1-69.4-29.1-98c-22.7-28.3-52.9-44.2-88-51.5
		c59.2,1.8,135.4,45.7,131.8,140.6C279.4,256.7,217.9,319.7,152.3,316.7L152.3,316.7z"/>
    <path d="M331.7,125.8h14.1l-6.9-23.8h-0.3L331.7,125.8L331.7,125.8z M349.2,137.7h-21l-3.7,12.9H309l21.5-66.5H347l21.5,66.5H353
		L349.2,137.7L349.2,137.7z"/>
    <polygon points="395.9,123.9 388.7,123.9 388.7,150.6 373.3,150.6 373.3,84.1 388.7,84.1 388.7,110.1 394,110.1 408.6,84.1
		427.8,84.1 407.2,114.2 429.6,150.6 410.8,150.6 395.9,123.9 	"/>
    <path d="M484.2,127.3l0.1,0.3c-0.3,7.8-2.6,13.8-6.9,17.9c-4.3,4.1-10.6,6.2-18.8,6.2c-8.2,0-14.9-2.5-20.1-7.6
		c-5.1-5.1-7.7-11.6-7.7-19.7v-13.9c0-8,2.5-14.6,7.4-19.7c5-5.1,11.4-7.6,19.3-7.6c8.4,0,14.8,2.1,19.3,6.4c4.4,4.2,7,10.3,7.5,18
		l-0.1,0.3h-15c-0.2-4.3-1.2-7.5-2.9-9.6c-1.7-2.1-4.7-3.2-8.8-3.2c-3.5,0-6.3,1.4-8.3,4.2c-2,2.8-3,6.5-3,11.1v14
		c0,4.6,1.1,8.3,3.3,11.2c2.2,2.8,5.2,4.2,9,4.2c3.7,0,6.4-1,7.9-3c1.6-2,2.4-5.1,2.7-9.5H484.2L484.2,127.3z"/>
    <polygon points="534.1,122.1 508,122.1 508,138.7 538.8,138.7 538.8,150.6 492.5,150.6 492.5,84.1 538.9,84.1 538.9,96 508,96
		508,110.3 534.1,110.3 534.1,122.1 	"/>
    <path d="M601.3,84.1v66.5h-15.4V96h-16.5v17.7c0,13.3-1.9,22.8-5.8,28.5c-3.9,5.6-9.7,8.5-17.5,8.5h-3.8v-11.9h1.8
		c4.2-0.5,6.9-2.3,8.1-5.6c1.2-3.2,1.8-9.7,1.8-19.5V84.1H601.3L601.3,84.1z"/>
    <polygon points="653.4,122.1 627.3,122.1 627.3,138.7 658.1,138.7 658.1,150.6 611.8,150.6 611.8,84.1 658.1,84.1 658.1,96
		627.3,96 627.3,110.3 653.4,110.3 653.4,122.1 	"/>
    <path d="M680.5,115.9h11.5c3.4,0,5.9-0.9,7.7-2.8c1.8-1.8,2.6-4.2,2.6-7.1c0-3-0.9-5.4-2.6-7.3c-1.8-1.9-4.3-2.8-7.7-2.8h-11.5
		V115.9L680.5,115.9z M680.5,127.8v22.8H665V84.1h27c7.9,0,14.1,2,18.8,6.1c4.6,4,6.9,9.3,6.9,15.8c0,6.5-2.3,11.8-6.9,15.8
		c-4.6,4-10.9,6-18.8,6H680.5L680.5,127.8z"/>
    <path d="M736.2,125.8h14.1l-6.9-23.8h-0.3L736.2,125.8L736.2,125.8z M753.7,137.7h-21l-3.7,12.9h-15.5l21.5-66.5h16.6l21.5,66.5
		h-15.5L753.7,137.7L753.7,137.7z"/>
    <polygon points="820.1,96 802.6,96 802.6,150.6 787.1,150.6 787.1,96 769.7,96 769.7,84.1 820.1,84.1 820.1,96 	"/>
    <path d="M864.7,111.3c0-4.8-1.1-8.7-3.4-11.7c-2.2-3-5.4-4.6-9.5-4.6c-4.2,0-7.4,1.5-9.6,4.5c-2.2,3-3.3,6.9-3.3,11.7v12.1
		c0,4.8,1.1,8.7,3.4,11.8c2.2,3,5.4,4.6,9.6,4.6c4.1,0,7.2-1.5,9.4-4.6c2.2-3,3.3-7,3.3-11.8V111.3L864.7,111.3z M880.1,123.3
		c0,8.2-2.6,15-7.8,20.3c-5.2,5.3-12,8-20.4,8c-8.4,0-15.3-2.7-20.5-8c-5.2-5.3-7.9-12.1-7.9-20.3v-12c0-8.2,2.6-14.9,7.8-20.2
		c5.2-5.3,12-8,20.4-8c8.4,0,15.1,2.7,20.4,8c5.2,5.3,7.9,12.1,7.9,20.2V123.3L880.1,123.3z"/>
    <path d="M904.6,115.9h11.5c3.4,0,5.9-0.9,7.7-2.8c1.8-1.8,2.6-4.2,2.6-7.1c0-3-0.9-5.4-2.6-7.3c-1.8-1.9-4.3-2.8-7.7-2.8h-11.5
		V115.9L904.6,115.9z M904.6,127.8v22.8h-15.5V84.1h27c7.9,0,14.1,2,18.8,6.1c4.6,4,6.9,9.3,6.9,15.8c0,6.5-2.3,11.8-6.9,15.8
		c-4.6,4-10.9,6-18.8,6H904.6L904.6,127.8z"/>
    <polygon points="360.3,188.3 342.7,188.3 342.7,242.9 327.2,242.9 327.2,188.3 309.8,188.3 309.8,176.4 360.3,176.4 360.3,188.3
		"/>
    <path d="M379.4,218.1h14.1l-6.9-23.8h-0.3L379.4,218.1L379.4,218.1z M396.9,230h-21l-3.7,12.9h-15.5l21.5-66.5h16.6l21.5,66.5
		h-15.5L396.9,230L396.9,230z"/>
    <polygon points="443.6,216.2 436.5,216.2 436.5,242.9 421,242.9 421,176.4 436.5,176.4 436.5,202.4 441.7,202.4 456.3,176.4
		475.5,176.4 454.9,206.5 477.3,242.9 458.5,242.9 443.6,216.2 	"/>
    <path d="M531.9,219.6l0.1,0.3c-0.3,7.8-2.6,13.8-6.9,17.9c-4.3,4.1-10.6,6.2-18.8,6.2c-8.2,0-14.9-2.5-20.1-7.6
		c-5.1-5.1-7.7-11.6-7.7-19.7v-13.9c0-8,2.5-14.6,7.4-19.7c5-5.1,11.4-7.6,19.3-7.6c8.4,0,14.8,2.1,19.3,6.4
		c4.4,4.2,7,10.3,7.5,18.1l-0.1,0.3h-15c-0.2-4.3-1.2-7.5-2.9-9.6c-1.7-2.1-4.7-3.2-8.8-3.2c-3.5,0-6.3,1.4-8.3,4.2
		c-2,2.8-3,6.5-3,11.1v14c0,4.6,1.1,8.3,3.3,11.2c2.2,2.8,5.2,4.3,9,4.3c3.7,0,6.4-1,7.9-3c1.6-2,2.4-5.1,2.7-9.5H531.9L531.9,219.6
		z"/>
    <polygon points="579.6,176.4 595,176.4 595,242.9 579.6,242.9 579.6,201.7 579.3,201.7 555,242.9 539.6,242.9 539.6,176.4
		555,176.4 555,217.6 555.2,217.6 579.6,176.4 	"/>
  </g>
</symbol><symbol id="icon-logo-red" viewBox="0 0 1000 350">
  <g>
    <path fill="#d24a43" class="st0" d="M125.4,110.2c-37.4,0-65.8,33.7-64.5,75.7c1.2,39.5,32.1,73.6,67,71.5c-37.2-11.7-56.3-36.4-56.8-73.1
		C70.6,147.1,91.4,123.5,125.4,110.2L125.4,110.2z M114.3,147.4c13.1,11.9,26,23.5,39.4,35.6c-10.9,10.7-20.1,19.8-29.2,28.9
		c-11.5,11.5-9.6,8.3,0.1,19.3c4.9,5.6,8.1,4.6,12.8-0.3c13.1-13.6,26.8-26.6,40.2-39.9c2.3-2.3,4.4-4.9,6.4-7.2
		c-13.7-14.1-26.6-27.5-39.6-40.6C130.1,128.9,130.1,129,114.3,147.4L114.3,147.4z M51.4,184c1.2-13.6,3-19.8,4.1-23.7
		c12.2-42.4,53.4-68.8,97.6-62.5c42.5,6.1,74.5,42.9,74.5,85.7c0,42.8-32,79.6-74.6,85.6c-44.5,6.3-85.4-19.9-97.5-62.4
		C54.4,203.2,51.4,192.2,51.4,184L51.4,184z"/>
    <path fill="#d24a43" class="st0" d="M152.3,316.7c65.4-12.1,109.7-59.7,115.2-120.8c3.3-36.7-6.1-69.4-29.1-98c-22.7-28.3-52.9-44.2-88-51.5
		c59.2,1.8,135.4,45.7,131.8,140.6C279.4,256.7,217.9,319.7,152.3,316.7L152.3,316.7z"/>
    <path d="M331.7,125.8h14.1l-6.9-23.8h-0.3L331.7,125.8L331.7,125.8z M349.2,137.7h-21l-3.7,12.9H309l21.5-66.5H347l21.5,66.5H353
		L349.2,137.7L349.2,137.7z"/>
    <polygon points="395.9,123.9 388.7,123.9 388.7,150.6 373.3,150.6 373.3,84.1 388.7,84.1 388.7,110.1 394,110.1 408.6,84.1
		427.8,84.1 407.2,114.2 429.6,150.6 410.8,150.6 395.9,123.9 	"/>
    <path d="M484.2,127.3l0.1,0.3c-0.3,7.8-2.6,13.8-6.9,17.9c-4.3,4.1-10.6,6.2-18.8,6.2c-8.2,0-14.9-2.5-20.1-7.6
		c-5.1-5.1-7.7-11.6-7.7-19.7v-13.9c0-8,2.5-14.6,7.4-19.7c5-5.1,11.4-7.6,19.3-7.6c8.4,0,14.8,2.1,19.3,6.4c4.4,4.2,7,10.3,7.5,18
		l-0.1,0.3h-15c-0.2-4.3-1.2-7.5-2.9-9.6c-1.7-2.1-4.7-3.2-8.8-3.2c-3.5,0-6.3,1.4-8.3,4.2c-2,2.8-3,6.5-3,11.1v14
		c0,4.6,1.1,8.3,3.3,11.2c2.2,2.8,5.2,4.2,9,4.2c3.7,0,6.4-1,7.9-3c1.6-2,2.4-5.1,2.7-9.5H484.2L484.2,127.3z"/>
    <polygon points="534.1,122.1 508,122.1 508,138.7 538.8,138.7 538.8,150.6 492.5,150.6 492.5,84.1 538.9,84.1 538.9,96 508,96
		508,110.3 534.1,110.3 534.1,122.1 	"/>
    <path d="M601.3,84.1v66.5h-15.4V96h-16.5v17.7c0,13.3-1.9,22.8-5.8,28.5c-3.9,5.6-9.7,8.5-17.5,8.5h-3.8v-11.9h1.8
		c4.2-0.5,6.9-2.3,8.1-5.6c1.2-3.2,1.8-9.7,1.8-19.5V84.1H601.3L601.3,84.1z"/>
    <polygon points="653.4,122.1 627.3,122.1 627.3,138.7 658.1,138.7 658.1,150.6 611.8,150.6 611.8,84.1 658.1,84.1 658.1,96
		627.3,96 627.3,110.3 653.4,110.3 653.4,122.1 	"/>
    <path d="M680.5,115.9h11.5c3.4,0,5.9-0.9,7.7-2.8c1.8-1.8,2.6-4.2,2.6-7.1c0-3-0.9-5.4-2.6-7.3c-1.8-1.9-4.3-2.8-7.7-2.8h-11.5
		V115.9L680.5,115.9z M680.5,127.8v22.8H665V84.1h27c7.9,0,14.1,2,18.8,6.1c4.6,4,6.9,9.3,6.9,15.8c0,6.5-2.3,11.8-6.9,15.8
		c-4.6,4-10.9,6-18.8,6H680.5L680.5,127.8z"/>
    <path d="M736.2,125.8h14.1l-6.9-23.8h-0.3L736.2,125.8L736.2,125.8z M753.7,137.7h-21l-3.7,12.9h-15.5l21.5-66.5h16.6l21.5,66.5
		h-15.5L753.7,137.7L753.7,137.7z"/>
    <polygon points="820.1,96 802.6,96 802.6,150.6 787.1,150.6 787.1,96 769.7,96 769.7,84.1 820.1,84.1 820.1,96 	"/>
    <path d="M864.7,111.3c0-4.8-1.1-8.7-3.4-11.7c-2.2-3-5.4-4.6-9.5-4.6c-4.2,0-7.4,1.5-9.6,4.5c-2.2,3-3.3,6.9-3.3,11.7v12.1
		c0,4.8,1.1,8.7,3.4,11.8c2.2,3,5.4,4.6,9.6,4.6c4.1,0,7.2-1.5,9.4-4.6c2.2-3,3.3-7,3.3-11.8V111.3L864.7,111.3z M880.1,123.3
		c0,8.2-2.6,15-7.8,20.3c-5.2,5.3-12,8-20.4,8c-8.4,0-15.3-2.7-20.5-8c-5.2-5.3-7.9-12.1-7.9-20.3v-12c0-8.2,2.6-14.9,7.8-20.2
		c5.2-5.3,12-8,20.4-8c8.4,0,15.1,2.7,20.4,8c5.2,5.3,7.9,12.1,7.9,20.2V123.3L880.1,123.3z"/>
    <path d="M904.6,115.9h11.5c3.4,0,5.9-0.9,7.7-2.8c1.8-1.8,2.6-4.2,2.6-7.1c0-3-0.9-5.4-2.6-7.3c-1.8-1.9-4.3-2.8-7.7-2.8h-11.5
		V115.9L904.6,115.9z M904.6,127.8v22.8h-15.5V84.1h27c7.9,0,14.1,2,18.8,6.1c4.6,4,6.9,9.3,6.9,15.8c0,6.5-2.3,11.8-6.9,15.8
		c-4.6,4-10.9,6-18.8,6H904.6L904.6,127.8z"/>
    <polygon points="360.3,188.3 342.7,188.3 342.7,242.9 327.2,242.9 327.2,188.3 309.8,188.3 309.8,176.4 360.3,176.4 360.3,188.3
		"/>
    <path d="M379.4,218.1h14.1l-6.9-23.8h-0.3L379.4,218.1L379.4,218.1z M396.9,230h-21l-3.7,12.9h-15.5l21.5-66.5h16.6l21.5,66.5
		h-15.5L396.9,230L396.9,230z"/>
    <polygon points="443.6,216.2 436.5,216.2 436.5,242.9 421,242.9 421,176.4 436.5,176.4 436.5,202.4 441.7,202.4 456.3,176.4
		475.5,176.4 454.9,206.5 477.3,242.9 458.5,242.9 443.6,216.2 	"/>
    <path d="M531.9,219.6l0.1,0.3c-0.3,7.8-2.6,13.8-6.9,17.9c-4.3,4.1-10.6,6.2-18.8,6.2c-8.2,0-14.9-2.5-20.1-7.6
		c-5.1-5.1-7.7-11.6-7.7-19.7v-13.9c0-8,2.5-14.6,7.4-19.7c5-5.1,11.4-7.6,19.3-7.6c8.4,0,14.8,2.1,19.3,6.4
		c4.4,4.2,7,10.3,7.5,18.1l-0.1,0.3h-15c-0.2-4.3-1.2-7.5-2.9-9.6c-1.7-2.1-4.7-3.2-8.8-3.2c-3.5,0-6.3,1.4-8.3,4.2
		c-2,2.8-3,6.5-3,11.1v14c0,4.6,1.1,8.3,3.3,11.2c2.2,2.8,5.2,4.3,9,4.3c3.7,0,6.4-1,7.9-3c1.6-2,2.4-5.1,2.7-9.5H531.9L531.9,219.6
		z"/>
    <polygon points="579.6,176.4 595,176.4 595,242.9 579.6,242.9 579.6,201.7 579.3,201.7 555,242.9 539.6,242.9 539.6,176.4
		555,176.4 555,217.6 555.2,217.6 579.6,176.4 	"/>
  </g>
</symbol><symbol id="icon-motivation" viewBox="0 0 32.85 38.98"><title>&#x420;&#x435;&#x441;&#x443;&#x440;&#x441; 1</title><g id="daedc6bd-64f4-477e-a832-6f4596f0a4e8" data-name="&#x421;&#x43B;&#x43E;&#x439; 2"><g id="07301a8e-2c49-4aa5-8671-460b7a6af8c3" data-name="&#x421;&#x43B;&#x43E;&#x439; 1"><path d="M30.12,25.23c-.56,7.61-6.94,13.15-14.74,13.15A14.52,14.52,0,0,1,.6,24.14,14,14,0,0,1,5.7,13.38" style="fill:none;stroke:#c6c2c2;stroke-linecap:round;stroke-miterlimit:10;stroke-width:1.20000004768372px"/><path d="M32.39,10.07h-.46V1.37A1.37,1.37,0,0,0,30.56,0H7.66A1.38,1.38,0,0,0,6.29,1.37v8.7H5.83a.44.44,0,0,0-.46.46v4.58a.43.43,0,0,0,.46.46h.46v8.7a1.38,1.38,0,0,0,1.37,1.38h22.9a1.41,1.41,0,0,0,1.37-1.38v-8.7h.46a.44.44,0,0,0,.46-.46V10.53A.44.44,0,0,0,32.39,10.07ZM31,1.37v8.7H26.87a2.91,2.91,0,0,0-.25-1,2.54,2.54,0,0,0-2.29-1.33h0A3.53,3.53,0,0,0,21.9,9.05V.92h8.66A.46.46,0,0,1,31,1.37ZM25.19,16.12l0,.05,0,0,0,0h0a1.65,1.65,0,0,1-1.3.19,2.81,2.81,0,0,1-.87-.34,2.65,2.65,0,0,1-1.35-2,2.34,2.34,0,0,0,.19-.46l1.23.92a.58.58,0,0,0,.27.09.42.42,0,0,0,.37-.18.49.49,0,0,0-.1-.64l-1.34-1,1.34-1a.51.51,0,0,0,.1-.65.49.49,0,0,0-.64-.09L21.73,12a2.45,2.45,0,0,0-.37-.74l.18-.22a3,3,0,0,0,.27-.37l0-.05c.43-.57,1.5-1.87,2.45-1.87a1.64,1.64,0,0,1,1.18.42,1.33,1.33,0,0,1,.24.36,6.59,6.59,0,0,1,.19,2v.65a14.58,14.58,0,0,1-.26,3A2.72,2.72,0,0,1,25.19,16.12Zm-4,2.34-.09.14a.12.12,0,0,0-.05,0l-1.26-3.16a2.76,2.76,0,0,0,1-.49,3.72,3.72,0,0,0,.41.76,3.54,3.54,0,0,0,.82.86l.6,1.33-.75-.14a.58.58,0,0,0-.46.23ZM16.59,18a.56.56,0,0,0-.41-.23h-.05l-.78.14.51-1.1h0A3.75,3.75,0,0,0,17.45,15a2.85,2.85,0,0,0,1,.48L17,18.68ZM13,16.17a2.22,2.22,0,0,1-.49-1.08.19.19,0,0,0,0-.07,13.85,13.85,0,0,1-.27-2.88h0v-.65a7.59,7.59,0,0,1,0-.91v0h0a2.73,2.73,0,0,1,.18-1,1.5,1.5,0,0,1,1.42-.83H14c1,.08,2.07,1.47,2.42,2l.05.05.23.32s.09.13.13.18a3.13,3.13,0,0,0-.38.78l-1.22-.92a.49.49,0,0,0-.64.09.5.5,0,0,0,.09.65l1.35,1-1.35,1a.49.49,0,0,0-.09.64.41.41,0,0,0,.37.18.58.58,0,0,0,.27-.09l1.21-.9a2.64,2.64,0,0,0,.12.4,2.7,2.7,0,0,1-1.74,2.24,2.67,2.67,0,0,1-.5.17A1.43,1.43,0,0,1,13,16.17ZM20.72,12h0l0,.05a1.74,1.74,0,0,1,.2.74v.2h0a1.72,1.72,0,0,1-.14.54.5.5,0,0,0-.23.2,1.82,1.82,0,0,1-1.55.92,1.85,1.85,0,0,1-.74-.15,1.88,1.88,0,0,1-.69-.62l0-.1a1.66,1.66,0,0,1-.27-.79h0v-.2a1.4,1.4,0,0,1,.59-1.11.51.51,0,0,0,.1-.24,1.82,1.82,0,0,1,1.14-.4A1.84,1.84,0,0,1,20.72,12Zm.22-1.75-.18.24-.05.09,0,0a2.75,2.75,0,0,0-1.35-.48H18.9a2.62,2.62,0,0,0-1.12.34l-.22.12h0l-.27-.35V.92h3.66V10.2ZM7.2,1.37A.49.49,0,0,1,7.66.92h8.75V9.11a3.74,3.74,0,0,0-2.48-1.32,2.58,2.58,0,0,0-2.29,1.32,3.31,3.31,0,0,0-.23,1H7.2ZM6.29,11h5v1.15c0,.64,0,1.6.19,2.51H6.29ZM7.2,24.27v-8.7h4.51a2.84,2.84,0,0,0,.67,1.28,2.36,2.36,0,0,0,1.6.6,2.93,2.93,0,0,0,.58-.06l-.44,1a.43.43,0,0,0,0,.46.46.46,0,0,0,.46.18L16,18.78l.41.73v5.22H7.66A.46.46,0,0,1,7.2,24.27Zm10.12-4.21a.62.62,0,0,0,.14-.19l1.65-3.61,1.42,3.61h0a.4.4,0,0,0,.36.27h.05v4.58H17.32ZM31,24.27a.46.46,0,0,1-.46.46h-8.7V19.08l.18-.3,1.14.18h.14a.56.56,0,0,0,.46-.18.43.43,0,0,0,0-.46l-.48-1a3.06,3.06,0,0,0,.89.14,2.41,2.41,0,0,0,1.69-.69,2.82,2.82,0,0,0,.64-1.19H31v8.7Zm.91-9.62H26.76a19.41,19.41,0,0,0,.18-2.56v-.55c0-.1,0-.3,0-.55h5v3.66Z" style="fill:#d14a43"/></g></g></symbol><symbol id="icon-peoples" viewBox="0 0 32.86 31.98"><title>&#x420;&#x435;&#x441;&#x443;&#x440;&#x441; 1</title><g id="0fd492a2-114b-4701-bbb0-dfd8fab42941" data-name="&#x421;&#x43B;&#x43E;&#x439; 2"><g id="4fdb8697-9e9b-4d1d-b810-60617839321d" data-name="&#x421;&#x43B;&#x43E;&#x439; 1"><path d="M8.52,6.86l-.93.37a12.68,12.68,0,0,0-7,10.64c-.5,8.55,8,15.32,16.24,13.07A13,13,0,0,0,26,16.28" style="fill:none;stroke:#c6c2c2;stroke-linecap:round;stroke-miterlimit:10;stroke-width:1.20000004768372px"/><path d="M26.06,0H9.32a1.4,1.4,0,0,0-1.4,1.4v10a1.41,1.41,0,0,0,1.4,1.41h1.09v3.74a.6.6,0,0,0,.58.59.56.56,0,0,0,.42-.18l4.15-4.15h.84a.59.59,0,0,0,.59-.59.6.6,0,0,0-.59-.59H15.28a.63.63,0,0,0-.38.17l-3.32,3.33v-3a.6.6,0,0,0-.59-.54H9.32a.23.23,0,0,1-.23-.23V1.4a.23.23,0,0,1,.23-.22H26.06a.22.22,0,0,1,.22.22V5.26a.59.59,0,0,0,.59.58.58.58,0,0,0,.59-.58V1.4A1.4,1.4,0,0,0,26.06,0Z" style="fill:#d14a43"/><path d="M31.46,7.2H19.74a1.4,1.4,0,0,0-1.4,1.4v6.85a1.41,1.41,0,0,0,1.4,1.41h7.34l3,3a.61.61,0,0,0,.64.13.6.6,0,0,0,.36-.55V16.86h.41a1.41,1.41,0,0,0,1.4-1.41V8.6A1.4,1.4,0,0,0,31.46,7.2Zm.23,8.25a.23.23,0,0,1-.23.23h-1a.58.58,0,0,0-.58.54V18l-2.14-2.14h0l0,0a.54.54,0,0,0-.39-.15H19.74a.22.22,0,0,1-.22-.23V8.6a.23.23,0,0,1,.22-.23H31.46a.24.24,0,0,1,.23.23Z" style="fill:#d14a43"/><path d="M25.6,11.44A.59.59,0,0,0,25,12a.6.6,0,0,0,.59.59.59.59,0,0,0,.59-.59A.58.58,0,0,0,25.6,11.44Z" style="fill:#d14a43"/><path d="M23,3.89H12.33a.59.59,0,0,0-.59.59.6.6,0,0,0,.59.59H23a.59.59,0,0,0,.59-.59A.58.58,0,0,0,23,3.89Z" style="fill:#d14a43"/><path d="M16.4,7.78H12.33a.59.59,0,0,0-.59.59.6.6,0,0,0,.59.59H16.4A.6.6,0,0,0,17,8.37.59.59,0,0,0,16.4,7.78Z" style="fill:#d14a43"/><path d="M22.87,11.44a.58.58,0,0,0-.59.59.59.59,0,1,0,1.17,0A.58.58,0,0,0,22.87,11.44Z" style="fill:#d14a43"/><path d="M28.33,11.44a.58.58,0,0,0-.58.59.59.59,0,1,0,.58-.59Z" style="fill:#d14a43"/></g></g></symbol><symbol id="icon-play" viewBox="0 0 24 24">
  <path d="M19.6,3.2C16,2.9,8,2.9,4.4,3.2C0.5,3.4,0,5.8,0,12c0,6.2,0.5,8.5,4.4, 8.8c3.6,0.2,11.6,0.2,15.2,0c3.9-0.3,4.4-2.6,4.4-8.8
	C24,5.8,23.5,3.5,19.6,3.2z M9,16V8l8,4L9,16z"/>
</symbol><symbol id="icon-practice" viewBox="0 0 27.12 30.56"><title>&#x420;&#x435;&#x441;&#x443;&#x440;&#x441; 1</title><g id="5eb3c95b-1c1a-415d-ac26-e0962ed106f6" data-name="&#x421;&#x43B;&#x43E;&#x439; 2"><g id="347ceb35-c5b8-4f11-ab52-6d5f7f40af0a" data-name="&#x421;&#x43B;&#x43E;&#x439; 1"><path d="M25.85,15.41A13.12,13.12,0,0,1,26,17.32,12.57,12.57,0,0,1,13.24,30.06a12.74,12.74,0,0,1-4-24.83" style="fill:none;stroke:#c6c2c2;stroke-linecap:round;stroke-miterlimit:10"/><path d="M18.05,7.8a.8.8,0,1,0,0,1.6.8.8,0,0,0,0-1.6Z" style="fill:#d14a43"/><path d="M18,14.34a.6.6,0,0,0-.59.59v1.73a.6.6,0,0,0,1.19,0V14.93A.6.6,0,0,0,18,14.34Z" style="fill:#d14a43"/><path d="M18,0a.6.6,0,0,0-.59.59V2.32a.6.6,0,0,0,1.19,0V.59A.6.6,0,0,0,18,0Z" style="fill:#d14a43"/><path d="M18,18a.6.6,0,0,0-.59.59v1.73a.6.6,0,0,0,1.19,0V18.56A.6.6,0,0,0,18,18Z" style="fill:#d14a43"/><path d="M18,21.6a.6.6,0,0,0-.59.59v1.73a.6.6,0,0,0,1.19,0V22.19A.6.6,0,0,0,18,21.6Z" style="fill:#d14a43"/><path d="M18,25.23a.6.6,0,0,0-.59.59v1.73a.6.6,0,0,0,1.19,0V25.82A.6.6,0,0,0,18,25.23Z" style="fill:#d14a43"/><path d="M24.89,11.72a2.21,2.21,0,0,0-1.31.43L20.9,10a3.2,3.2,0,0,0-2.29-4.54V4.22a.6.6,0,0,0-1.19,0V5.48A3.19,3.19,0,0,0,14.87,8.6a2.84,2.84,0,0,0,.07.66l-5,2.23a2.22,2.22,0,1,0-2.78,3.35l-1,4.39h0a2.23,2.23,0,0,0-2.23,2.22v.12l-2,.61c.19.36.37.72.55,1.08L4.3,22.7a2.23,2.23,0,1,0,3-3.15l1-4.45a2.23,2.23,0,0,0,2.1-2.22,1.51,1.51,0,0,0,0-.3l5-2.23a3.15,3.15,0,0,0,2,1.36V13a.6.6,0,0,0,1.19,0v-1.3A3.12,3.12,0,0,0,20.18,11l2.66,2.13a2.29,2.29,0,0,0-.17.87,2.23,2.23,0,1,0,2.22-2.23ZM6.15,22.49a1,1,0,0,1,0-2.08,1,1,0,1,1,0,2.08Zm2.08-8.57a1,1,0,1,1,1-1A1,1,0,0,1,8.23,13.92Zm9.82-3.33a2,2,0,1,1,2-2A2,2,0,0,1,18.05,10.59ZM24.89,15a1,1,0,1,1,1-1A1,1,0,0,1,24.89,15Z" style="fill:#d14a43"/></g></g></symbol></svg>