<svg xmlns="http://www.w3.org/2000/svg" viewBox="0 0 32.333 32.349"><path data-name="Path 43" class="cls-1" d="M27.989 0H4.36A4.363 4.363 0 0 0 0 4.36v23.629a4.363 4.363 0 0 0 4.36 4.36h11.656l.024-11.561h-3.007a.718.718 0 0 1-.712-.7l-.021-3.732a.709.709 0 0 1 .712-.712h3v-3.6c0-4.178 2.548-6.457 6.275-6.457h3.054a.714.714 0 0 1 .712.712V9.44a.714.714 0 0 1-.712.712H23.47c-2.026 0-2.421.965-2.421 2.374v3.118H25.5a.709.709 0 0 1 .7.791l-.443 3.727a.71.71 0 0 1-.7.625h-4l-.024 11.561h6.932a4.363 4.363 0 0 0 4.36-4.36V4.36A4.34 4.34 0 0 0 27.989 0z"/></svg>