<svg id="Symbol_1_1" data-name="Symbol 1 – 1" xmlns="http://www.w3.org/2000/svg" viewBox="0 0 150 18.521"><defs><style>.cls-1{fill:#ff0}</style></defs><path id="Path_1" data-name="Path 1" class="cls-1" d="M5.556 0H0v18.521h5.556V4.816h3.7v13.705h5.556V0H5.556z"/><path id="Path_2" data-name="Path 2" class="cls-1" d="M3940.714 0h-4.014v4.816h4.014v13.705h5.557V4.816h4.011V0h-9.568z" transform="translate(-3832.539)"/><path id="Path_3" data-name="Path 3" class="cls-1" d="M3363.055 2.889V0h-4.332l-3.667 6.673V0h-5.556v18.521h5.556V9.557l4.491 8.964h4.186V15.1l-4.262-6.916z" transform="translate(-3260.875)"/><path id="Path_4" data-name="Path 4" class="cls-1" d="M1872.262 2.889V0h-4.331l-3.67 6.673V0h-5.561v6.718L1855.011 0h-4.331v2.889l3.585 5.3L1850 15.1v3.419h4.189l4.516-9.015v9.015h5.557V9.557l4.49 8.964h4.188V15.1l-4.265-6.916z" transform="translate(-1801.05)"/><path id="Path_5" data-name="Path 5" class="cls-1" d="M2795.557 11.163h4.257V6.348h-4.257V4.816h5.189V0H2790v18.521h11.177v-4.815h-5.62z" transform="translate(-2716.179)"/><path id="Path_6" data-name="Path 6" class="cls-1" d="M1251.761 0s.024.151.056.41l-.056-.41h-3.7c-2.879.632-4.316 1.955-5.557 4.7v9a7.555 7.555 0 0 0 5.557 4.816h3.7l.084-1.053c-.039.638-.084 1.053-.084 1.053a9.051 9.051 0 0 0 5.556-4.977V4.816c-1.005-2.516-2.468-3.869-5.556-4.816zm-3.7 13.706a34.022 34.022 0 0 0 0-8.89h3.7c-.714 3.588-.505 5.273 0 8.89z" transform="translate(-1209.625)"/><path id="Path_7" data-name="Path 7" class="cls-1" d="M4514.761 0s.024.151.056.41l-.056-.41h-3.7c-2.878.632-4.315 1.955-5.556 4.7v9a7.554 7.554 0 0 0 5.556 4.816h3.7l.084-1.053c-.04.638-.084 1.053-.084 1.053a9.051 9.051 0 0 0 5.557-4.977V4.816c-1.004-2.516-2.47-3.869-5.557-4.816zm-3.7 13.706a33.974 33.974 0 0 0 0-8.89h3.7c-.714 3.588-.506 5.273 0 8.89z" transform="translate(-4386.288)"/><path id="Path_8" data-name="Path 8" class="cls-1" d="M660.97 0h-8.47v18.521h5.556v-3.463h2.913l.037-.46c-.021.291-.037.46-.037.46a9.049 9.049 0 0 0 5.556-4.977V4.818C665.521 2.3 664.057.947 660.97 0zm-2.913 10.242V4.816h2.913a20.262 20.262 0 0 0 0 5.427z" transform="translate(-635.235)"/><path id="Path_9" data-name="Path 9" class="cls-1" d="M5147.47 0H5139v18.521h5.557v-3.463h2.913l.038-.46c-.021.291-.038.46-.038.46a9.048 9.048 0 0 0 5.557-4.977V4.818C5152.021 2.3 5150.558.947 5147.47 0zm-2.913 10.242V4.816h2.913a20.313 20.313 0 0 0 0 5.427z" transform="translate(-5003.026)"/></svg>