<svg xmlns="http://www.w3.org/2000/svg" viewBox="0 0 501.25 61.892"><defs><style>.fill-yellow{fill:#ff0}</style></defs><g id="Symbol_1_1" data-name="Symbol 1 – 1" transform="translate(-477.75 -192.79)"><path id="Path_1" data-name="Path 1" class="fill-yellow" d="M18.568 0H0v61.892h18.568v-45.8h12.378v45.8h18.568V0H18.568z" transform="translate(477.75 192.79)"/><path id="Path_2" data-name="Path 2" class="fill-yellow" d="M3950.113 0H3936.7v16.092h13.413v45.8h18.568v-45.8h13.4V0h-31.972z" transform="translate(-3110.876 192.79)"/><path id="Path_3" data-name="Path 3" class="fill-yellow" d="M3394.8 9.655V0h-14.474l-12.255 22.3V0H3349.5v61.892h18.568V31.937l15 29.956h13.988V50.469l-14.244-23.112z" transform="translate(-2575.595 192.79)"/><path id="Path_4" data-name="Path 4" class="fill-yellow" d="M1924.395 9.655V0h-14.474l-12.264 22.3V0h-18.568v22.449L1866.746 0h-14.474v9.655l11.981 17.7L1850 50.469v11.423h14l15.093-30.124v30.124h18.568V31.937l15 29.956h14V50.469l-14.253-23.112z" transform="translate(-1208.677 192.79)"/><path id="Path_5" data-name="Path 5" class="fill-yellow" d="M2808.568 37.3h14.226V21.211h-14.226v-5.119h17.339V0H2790v61.892h37.347V45.8h-18.78z" transform="translate(-2065.565 192.79)"/><path id="Path_6" data-name="Path 6" class="fill-yellow" d="M1273.446 0s.079.5.186 1.37l-.186-1.37h-12.379c-9.62 2.113-14.421 6.534-18.568 15.712V45.8c3.324 8.267 9.5 14.1 18.568 16.092h12.379l.283-3.519c-.132 2.131-.283 3.519-.283 3.519 8.063-2.246 14.907-8.709 18.568-16.631V16.092c-3.36-8.4-8.249-12.927-18.568-16.092zm-12.379 45.8c1.2-11.494 1.4-18.223 0-29.708h12.379c-2.387 11.989-1.689 17.622 0 29.708z" transform="translate(-654.891 192.79)"/><path id="Path_7" data-name="Path 7" class="fill-yellow" d="M4536.446 0s.08.5.186 1.37l-.186-1.37h-12.379c-9.62 2.113-14.421 6.534-18.568 15.712V45.8c3.325 8.267 9.5 14.1 18.568 16.092h12.379l.282-3.519c-.133 2.131-.282 3.519-.282 3.519 8.063-2.246 14.907-8.709 18.567-16.631V16.092c-3.35-8.4-8.249-12.927-18.567-16.092zm-12.379 45.8c1.2-11.494 1.4-18.223 0-29.708h12.379c-2.387 11.989-1.689 17.622 0 29.708z" transform="translate(-3629.383 192.79)"/><path id="Path_8" data-name="Path 8" class="fill-yellow" d="M680.8 0h-28.3v61.892h18.568V50.319h9.732l.124-1.538c-.071.973-.124 1.538-.124 1.538 8.064-2.246 14.907-8.709 18.568-16.631V16.1C696.01 7.692 691.121 3.165 680.8 0zm-9.735 34.227V16.092h9.735a67.7 67.7 0 0 0 0 18.134z" transform="translate(-117.057 192.79)"/><path id="Path_9" data-name="Path 9" class="fill-yellow" d="M5167.3 0H5139v61.892h18.568V50.319h9.735l.124-1.538c-.071.973-.124 1.538-.124 1.538 8.063-2.246 14.907-8.709 18.567-16.631V16.1c-3.36-8.408-8.249-12.935-18.57-16.1zm-9.735 34.227V16.092h9.735a67.634 67.634 0 0 0 0 18.134z" transform="translate(-4206.871 192.79)"/></g></svg>