<svg xmlns="http://www.w3.org/2000/svg" viewBox="0 0 32.366 42.254"><path data-name="Path 27" d="M31.166 6.475a9.814 9.814 0 0 0-2.737-3.8A10.59 10.59 0 0 0 23.957.408 21.733 21.733 0 0 0 19.077 0H2.679v19.566H0v4.391h2.679v1.782H0v4.391h2.679v12.124h4.705V30.13h16.841v-4.391H7.384v-1.782H19.45c4.531 0 7.78-1.269 9.795-3.727a11.351 11.351 0 0 0 3.121-8.024 16.96 16.96 0 0 0-1.2-5.731zm-6.184 11.088c-1.176 1.351-2.737 2-5.474 2H7.384V4.5h12.042a13.9 13.9 0 0 1 3.948.373 6.5 6.5 0 0 1 2.667 2.5 9.365 9.365 0 0 1 1.025 4.507 8.767 8.767 0 0 1-2.084 5.683z"/></svg>