<svg xmlns="http://www.w3.org/2000/svg"><symbol id="angle-down" viewBox="0 0 15.6 9.2"><path id="Path_23" class="st0" d="M.7.7l7.1 7.1L14.9.7" fill="none" stroke-width="2"/></symbol><symbol id="angle-left" viewBox="0 0 54.736 54.736"><defs><style>.cls-1{fill:none;stroke:#fff;stroke-width:2px}</style></defs><g id="Symbol_1_1" data-name="Symbol 1 – 1" transform="translate(-142.088 -2630.793)"><path id="Path_15" data-name="Path 15" class="cls-1" d="M-4184.727 4518v37.7h37.7" transform="rotate(45 269.925 8831.566)"/></g></symbol><symbol id="angle-up" viewBox="0 0 15.6 9.2"><path id="Path_23" class="st0" d="M14.8 8.5l-7-7.1L.7 8.5" fill="none" stroke-width="2"/></symbol><symbol id="facebook" viewBox="0 0 32.333 32.349"><path id="Path_43" data-name="Path 43" class="cls-1" d="M27.989 0H4.36A4.363 4.363 0 0 0 0 4.36v23.629a4.363 4.363 0 0 0 4.36 4.36h11.656l.024-11.561h-3.007a.718.718 0 0 1-.712-.7l-.021-3.732a.709.709 0 0 1 .712-.712h3v-3.6c0-4.178 2.548-6.457 6.275-6.457h3.054a.714.714 0 0 1 .712.712V9.44a.714.714 0 0 1-.712.712H23.47c-2.026 0-2.421.965-2.421 2.374v3.118H25.5a.709.709 0 0 1 .7.791l-.443 3.727a.71.71 0 0 1-.7.625h-4l-.024 11.561h6.932a4.363 4.363 0 0 0 4.36-4.36V4.36A4.34 4.34 0 0 0 27.989 0z"/></symbol><symbol id="logo-mobile-nav" viewBox="0 0 150 18.521"><defs><style>.cls-1{fill:#ff0}</style></defs><path id="Path_1" data-name="Path 1" class="cls-1" d="M5.556 0H0v18.521h5.556V4.816h3.7v13.705h5.556V0H5.556z"/><path id="Path_2" data-name="Path 2" class="cls-1" d="M3940.714 0h-4.014v4.816h4.014v13.705h5.557V4.816h4.011V0h-9.568z" transform="translate(-3832.539)"/><path id="Path_3" data-name="Path 3" class="cls-1" d="M3363.055 2.889V0h-4.332l-3.667 6.673V0h-5.556v18.521h5.556V9.557l4.491 8.964h4.186V15.1l-4.262-6.916z" transform="translate(-3260.875)"/><path id="Path_4" data-name="Path 4" class="cls-1" d="M1872.262 2.889V0h-4.331l-3.67 6.673V0h-5.561v6.718L1855.011 0h-4.331v2.889l3.585 5.3L1850 15.1v3.419h4.189l4.516-9.015v9.015h5.557V9.557l4.49 8.964h4.188V15.1l-4.265-6.916z" transform="translate(-1801.05)"/><path id="Path_5" data-name="Path 5" class="cls-1" d="M2795.557 11.163h4.257V6.348h-4.257V4.816h5.189V0H2790v18.521h11.177v-4.815h-5.62z" transform="translate(-2716.179)"/><path id="Path_6" data-name="Path 6" class="cls-1" d="M1251.761 0s.024.151.056.41l-.056-.41h-3.7c-2.879.632-4.316 1.955-5.557 4.7v9a7.555 7.555 0 0 0 5.557 4.816h3.7l.084-1.053c-.039.638-.084 1.053-.084 1.053a9.051 9.051 0 0 0 5.556-4.977V4.816c-1.005-2.516-2.468-3.869-5.556-4.816zm-3.7 13.706a34.022 34.022 0 0 0 0-8.89h3.7c-.714 3.588-.505 5.273 0 8.89z" transform="translate(-1209.625)"/><path id="Path_7" data-name="Path 7" class="cls-1" d="M4514.761 0s.024.151.056.41l-.056-.41h-3.7c-2.878.632-4.315 1.955-5.556 4.7v9a7.554 7.554 0 0 0 5.556 4.816h3.7l.084-1.053c-.04.638-.084 1.053-.084 1.053a9.051 9.051 0 0 0 5.557-4.977V4.816c-1.004-2.516-2.47-3.869-5.557-4.816zm-3.7 13.706a33.974 33.974 0 0 0 0-8.89h3.7c-.714 3.588-.506 5.273 0 8.89z" transform="translate(-4386.288)"/><path id="Path_8" data-name="Path 8" class="cls-1" d="M660.97 0h-8.47v18.521h5.556v-3.463h2.913l.037-.46c-.021.291-.037.46-.037.46a9.049 9.049 0 0 0 5.556-4.977V4.818C665.521 2.3 664.057.947 660.97 0zm-2.913 10.242V4.816h2.913a20.262 20.262 0 0 0 0 5.427z" transform="translate(-635.235)"/><path id="Path_9" data-name="Path 9" class="cls-1" d="M5147.47 0H5139v18.521h5.557v-3.463h2.913l.038-.46c-.021.291-.038.46-.038.46a9.048 9.048 0 0 0 5.557-4.977V4.818C5152.021 2.3 5150.558.947 5147.47 0zm-2.913 10.242V4.816h2.913a20.313 20.313 0 0 0 0 5.427z" transform="translate(-5003.026)"/></symbol><symbol id="projector" viewBox="0 0 501.25 61.892"><defs><style>.fill-yellow{fill:#ff0}</style></defs><g id="Symbol_1_1" data-name="Symbol 1 – 1" transform="translate(-477.75 -192.79)"><path id="Path_1" data-name="Path 1" class="fill-yellow" d="M18.568 0H0v61.892h18.568v-45.8h12.378v45.8h18.568V0H18.568z" transform="translate(477.75 192.79)"/><path id="Path_2" data-name="Path 2" class="fill-yellow" d="M3950.113 0H3936.7v16.092h13.413v45.8h18.568v-45.8h13.4V0h-31.972z" transform="translate(-3110.876 192.79)"/><path id="Path_3" data-name="Path 3" class="fill-yellow" d="M3394.8 9.655V0h-14.474l-12.255 22.3V0H3349.5v61.892h18.568V31.937l15 29.956h13.988V50.469l-14.244-23.112z" transform="translate(-2575.595 192.79)"/><path id="Path_4" data-name="Path 4" class="fill-yellow" d="M1924.395 9.655V0h-14.474l-12.264 22.3V0h-18.568v22.449L1866.746 0h-14.474v9.655l11.981 17.7L1850 50.469v11.423h14l15.093-30.124v30.124h18.568V31.937l15 29.956h14V50.469l-14.253-23.112z" transform="translate(-1208.677 192.79)"/><path id="Path_5" data-name="Path 5" class="fill-yellow" d="M2808.568 37.3h14.226V21.211h-14.226v-5.119h17.339V0H2790v61.892h37.347V45.8h-18.78z" transform="translate(-2065.565 192.79)"/><path id="Path_6" data-name="Path 6" class="fill-yellow" d="M1273.446 0s.079.5.186 1.37l-.186-1.37h-12.379c-9.62 2.113-14.421 6.534-18.568 15.712V45.8c3.324 8.267 9.5 14.1 18.568 16.092h12.379l.283-3.519c-.132 2.131-.283 3.519-.283 3.519 8.063-2.246 14.907-8.709 18.568-16.631V16.092c-3.36-8.4-8.249-12.927-18.568-16.092zm-12.379 45.8c1.2-11.494 1.4-18.223 0-29.708h12.379c-2.387 11.989-1.689 17.622 0 29.708z" transform="translate(-654.891 192.79)"/><path id="Path_7" data-name="Path 7" class="fill-yellow" d="M4536.446 0s.08.5.186 1.37l-.186-1.37h-12.379c-9.62 2.113-14.421 6.534-18.568 15.712V45.8c3.325 8.267 9.5 14.1 18.568 16.092h12.379l.282-3.519c-.133 2.131-.282 3.519-.282 3.519 8.063-2.246 14.907-8.709 18.567-16.631V16.092c-3.35-8.4-8.249-12.927-18.567-16.092zm-12.379 45.8c1.2-11.494 1.4-18.223 0-29.708h12.379c-2.387 11.989-1.689 17.622 0 29.708z" transform="translate(-3629.383 192.79)"/><path id="Path_8" data-name="Path 8" class="fill-yellow" d="M680.8 0h-28.3v61.892h18.568V50.319h9.732l.124-1.538c-.071.973-.124 1.538-.124 1.538 8.064-2.246 14.907-8.709 18.568-16.631V16.1C696.01 7.692 691.121 3.165 680.8 0zm-9.735 34.227V16.092h9.735a67.7 67.7 0 0 0 0 18.134z" transform="translate(-117.057 192.79)"/><path id="Path_9" data-name="Path 9" class="fill-yellow" d="M5167.3 0H5139v61.892h18.568V50.319h9.735l.124-1.538c-.071.973-.124 1.538-.124 1.538 8.063-2.246 14.907-8.709 18.567-16.631V16.1c-3.36-8.408-8.249-12.935-18.57-16.1zm-9.735 34.227V16.092h9.735a67.634 67.634 0 0 0 0 18.134z" transform="translate(-4206.871 192.79)"/></g></symbol><symbol id="ruble" viewBox="0 0 32.366 42.254"><path id="Path_27" data-name="Path 27" d="M31.166 6.475a9.814 9.814 0 0 0-2.737-3.8A10.59 10.59 0 0 0 23.957.408 21.733 21.733 0 0 0 19.077 0H2.679v19.566H0v4.391h2.679v1.782H0v4.391h2.679v12.124h4.705V30.13h16.841v-4.391H7.384v-1.782H19.45c4.531 0 7.78-1.269 9.795-3.727a11.351 11.351 0 0 0 3.121-8.024 16.96 16.96 0 0 0-1.2-5.731zm-6.184 11.088c-1.176 1.351-2.737 2-5.474 2H7.384V4.5h12.042a13.9 13.9 0 0 1 3.948.373 6.5 6.5 0 0 1 2.667 2.5 9.365 9.365 0 0 1 1.025 4.507 8.767 8.767 0 0 1-2.084 5.683z"/></symbol><symbol id="triangle1-mobile" viewBox="0 0 312 63.041"><defs><style>.cls-1{fill:#ff0;opacity:.8}</style></defs><path id="Path_50" data-name="Path 50" class="cls-1" d="M3856.756 225.182l-312-.017 121.757-63.024z" transform="translate(-3544.756 -162.141)"/></symbol><symbol id="triangle2-mobile" viewBox="0 0 312.232 216"><defs><style>.cls-1{fill:#f61688;opacity:.8}</style></defs><path id="Path_51" data-name="Path 51" class="cls-1" d="M5201 1337.586l252.227-215.994H5457l56.232 216z" transform="translate(-5201 -1121.592)"/></symbol><symbol id="triangle3" viewBox="0 0 654.168 210.818"><defs><style>.cls-1{fill:#ff0;opacity:.8}</style></defs><path id="Path_14" data-name="Path 14" class="cls-1" d="M2331.559 2524.182l-210.168 210.727-444 .091 649.264-210.818z" transform="translate(-1677.391 -2524.182)"/></symbol><symbol id="triangle4" viewBox="0 0 822.8 633.1"><style>.st0{opacity:.8;fill:#f61688;enable-background:new}</style><path class="st0" d="M822.8 0L0 249.1h444v384L822.7 3.4V.1z"/></symbol><symbol id="vk" viewBox="0 0 32.6 32.6"><path d="M27.6 0H5C2.2 0 0 2.2 0 5v22.6c0 2.8 2.2 5 5 5h22.6c2.8 0 5-2.2 5-5V5c0-2.8-2.3-5-5-5zm-1.8 19.4c.9.8 1.8 1.7 2.6 2.6.4.4.7.9.9 1.3.4.7 0 1.4-.6 1.5h-3.8c-.9.1-1.8-.3-2.4-1-.5-.5-1-1.1-1.5-1.7-.2-.2-.4-.4-.7-.6-.3-.3-.8-.3-1.1.1-.1.1-.1.2-.1.2-.3.6-.4 1.2-.4 1.8 0 .9-.3 1.1-1.2 1.2-1.9.2-3.8-.3-5.5-1.2-1.5-.9-2.7-2.1-3.7-3.5-1.9-2.7-3.6-5.6-4.9-8.7-.3-.7-.1-1 .7-1.1h3.7c.5 0 .9.3 1 .8.7 1.7 1.5 3.2 2.5 4.7.3.4.6.8 1 1.1.2.2.6.2.8 0 .1-.1.1-.2.2-.3.1-.3.2-.6.2-1 .1-1.2.1-2.3-.1-3.5 0-.7-.6-1.2-1.2-1.3-.4-.1-.3-.2-.1-.4.3-.4.7-.6 1.2-.6h4.3c.7.1.8.4.9 1.1v4.8c0 .3.1 1.1.6 1.2.4.1.6-.2.9-.4 1-1.1 1.8-2.4 2.4-3.7.3-.6.5-1.2.8-1.8.1-.4.5-.7 1-.7h4.6c.7.1.9.4.7 1.1-.4 1-1 2-1.7 2.9-.7 1-1.4 1.9-2.1 2.9-.8 1-.7 1.4.1 2.2z"/></symbol></svg>