<svg xmlns="http://www.w3.org/2000/svg" viewBox="0 0 32.6 32.6"><path d="M27.6 0H5C2.2 0 0 2.2 0 5v22.6c0 2.8 2.2 5 5 5h22.6c2.8 0 5-2.2 5-5V5c0-2.8-2.3-5-5-5zm-1.8 19.4c.9.8 1.8 1.7 2.6 2.6.4.4.7.9.9 1.3.4.7 0 1.4-.6 1.5h-3.8c-.9.1-1.8-.3-2.4-1-.5-.5-1-1.1-1.5-1.7-.2-.2-.4-.4-.7-.6-.3-.3-.8-.3-1.1.1-.1.1-.1.2-.1.2-.3.6-.4 1.2-.4 1.8 0 .9-.3 1.1-1.2 1.2-1.9.2-3.8-.3-5.5-1.2-1.5-.9-2.7-2.1-3.7-3.5-1.9-2.7-3.6-5.6-4.9-8.7-.3-.7-.1-1 .7-1.1h3.7c.5 0 .9.3 1 .8.7 1.7 1.5 3.2 2.5 4.7.3.4.6.8 1 1.1.2.2.6.2.8 0 .1-.1.1-.2.2-.3.1-.3.2-.6.2-1 .1-1.2.1-2.3-.1-3.5 0-.7-.6-1.2-1.2-1.3-.4-.1-.3-.2-.1-.4.3-.4.7-.6 1.2-.6h4.3c.7.1.8.4.9 1.1v4.8c0 .3.1 1.1.6 1.2.4.1.6-.2.9-.4 1-1.1 1.8-2.4 2.4-3.7.3-.6.5-1.2.8-1.8.1-.4.5-.7 1-.7h4.6c.7.1.9.4.7 1.1-.4 1-1 2-1.7 2.9-.7 1-1.4 1.9-2.1 2.9-.8 1-.7 1.4.1 2.2z"/></svg>