<svg xmlns="http://www.w3.org/2000/svg" xmlns:xlink="http://www.w3.org/1999/xlink" width="524.736" height="126.308" viewBox="0 0 524.736 126.308"><path fill="#FED310" d="M101.956 61.827h.002v.005h-.002z"/><defs><path id="a" d="M0 0h524.736v126.308H0z"/></defs><clipPath id="b"><use xlink:href="#a" overflow="visible"/></clipPath><path clip-path="url(#b)" fill="#DF1817" d="M66.115 27.234h.002-.002M66.113 5.935h.002"/><path clip-path="url(#b)" fill="#68AB42" d="M8.22 61.832v-.002M30.275 61.83v-.003.003z"/><path clip-path="url(#b)" fill-rule="evenodd" clip-rule="evenodd" fill="#2C6CA1" d="M399.473 15.77c-12.43-7.616-30.992-7.9-42.622 1.29l-1.74 1.512c-14.8-11.703-39.308-11.942-52.275 3.356-5.807 6.86-8.918 15.8-9.694 24.697h-.187l-.11 15.117h.11V80.84h24.776c.014-5.2-.324-29.876.223-33.07 1.728-10.022 5.305-14.096 15.67-12.498 8.033 1.24 9.508 7.51 9.772 14.49v30.927h24.77c0-3.708-.312-31.408.077-34.36 1.237-9.264 4.344-12.562 13.712-11.058 6.803 1.087 9.642 6.414 10.147 12.832l.023 1.067v42.8h-91.127c-7.81 0-13.836-.474-14.294-9.992V11.86h-24.777v70.416c0 14.204 8.44 27.126 21.818 32.076 9.002 3.336 21.15 2.397 30.743 2.397H416.9V49.465c0-12.58-5.433-25.626-16.074-32.812l-1.353-.883zM181.395 7.44c-16.684 2.71-27.89 15.884-28.343 32.662-.283 10.018 0 23.32 0 33.88 0 10.825.03 20.014 7.076 29.12 8.234 9.97 19.754 12.708 33.47 13.09l80.486.334c-11.195-6.06-13.613-12.804-16.666-24.888l-67.246-.144c-14.57-.067-12.342-9.116-12.342-21.2 0-5.77-.458-29.792.434-32.74 2.276-7.424 12.76-5.932 18.8-5.932 5.316 0 25.218-.504 28.535.553 5.528 1.76 4.274 9.253 4.274 14.922 0 2.592.36 6.658-.174 9.042l-2.84.847h-38.42V81.76l38.934-.04c8.207 0 16.947-3.9 21.93-10.508 6.77-8.93 5.392-19.795 5.392-30.41 0-14.028-5.928-26.104-19.582-31.563-8.112-3.236-17.1-2.394-25.618-2.394-6.413.002-21.822-.514-28.1.593m324.69 7.44c-8.76-4.383-13.01-3.354-22.48-3.354-8.958 0-25.678-.695-33.482 1.227-14.6 3.587-25.083 14.803-26.92 29.82-.52 4.29-.128 42.087.12 44.57l1.093 6.446c5.363 17.174 18.345 23.75 37.134 22.865h31.408v-24.78H460c-7.912.1-11.923-2.115-12.134-7.966-.12-3.832-.237-37.993.19-39.37 2.93-9.57 11.906-8.04 20.684-8.04 1.864 0 23.97-.34 25.167.19 4.635 2.033 5.89 5.83 6.023 10.583v69.382h24.805v-69.38c-.3-13.94-6.152-25.594-18.65-32.194"/><path clip-path="url(#b)" fill-rule="evenodd" clip-rule="evenodd" fill="#418BCA" d="M355.15 20.54c-7.95-6.278-14.246-8.922-24.446-9.187-21.767-.558-34.866 17.274-35.83 37.623l.018 9.922v19.1h15.988c.005-5.305.253-27.253.253-30.82.012-11.31 9.95-18.915 19.84-18.34 7.854.45 17.495 5.628 17.993 16.407V77.85h12.886c0-4.597-.337-28.767.09-32.012 1.447-10.732 6.516-17.265 18.816-16.968 8.158.198 17.212 5.62 17.99 18.894l.03.67V97.07H298.024c-8.422-.137-16.488-6.124-16.923-15.084V13.1h-17.557v69.614c.394 16.36 13.146 30.242 29.362 32.044l5.226.31h117.36l-.186-65.856c.255-36.384-40.72-47.66-60.153-28.672M180.796 8.897c-15.042 3.64-25.51 15.436-25.943 31.155v39.925c.204 23.35 15.99 34.177 37.58 34.357l75.065.637c-5.526-5.238-9.102-10.467-10.947-17.723l-69.998-.476c-8.93-.04-14.716-6.12-15.036-15.6-.153-4.137-.266-40.19.254-43.14 1.02-5.798 5.844-11.05 11.404-11.584 1.847-.182 38.976-.21 41.538.26 5.268.956 9.396 4.178 10.022 9.266.157 1.21.223 18.497-.203 20.477-.877 4.12-.953 5.004-7.35 5.817h-34.235V80.26c4.517 0 31.747-.05 33.73-.04 13.943.066 26.56-9.897 26.618-23.705l.074-17.774c-1.452-17.877-11.393-29.522-32.25-30.564h-34.45l-5.872.72zm324.04 7.374c-2.815-1.408-5.99-2.76-9.158-3.053-1.033-.1-35.084-.33-39.967.272-15.997 1.962-29.333 13.32-31.294 29.328l-.098 2.765.15 41.037c3.474 23.86 18.812 28.923 37.068 28.923h28.707V97.135h-30.258c-6.45 0-17.81-1.623-18.348-9.426-.917-13.242-.078-33.123-.078-46.384 0-6.464 7.603-11.738 17.024-11.634h35.275c6.938.418 12.974 4.927 13.433 13.328l.01 72.617H523.1l-.506-73.06c-1.618-12.45-9.566-21.976-17.76-26.306"/><path clip-path="url(#b)" fill="#DF1817" d="M124.022 61.832c0-28.52-22.135-52.03-50.73-55.445l10.67 13.356-7.942 8.838c14.976 4.148 25.936 17.455 25.938 33.247v.005H93.75l7.61 6.25 2.01 1.65 9.61 7.91 9.626-7.91.925-.758 8.697-7.143h-8.205z"/><path clip-path="url(#b)" fill="#FED310" d="M113.04 79.57l-12.09-9.642C97.17 85.124 83.02 96.425 66.114 96.425v.314l-.005-.01.005-8.896c-5.263 6.41-10.54 12.82-15.807 19.24 5.267 6.415 10.544 12.828 15.807 19.232v-8.587c28.29 0 51.802-19.58 56.866-45.46l-9.94 7.31z"/><path clip-path="url(#b)" fill="#057EBE" d="M47.39 107.05s7.305-7.872 10.575-11.528c-15.864-3.564-27.69-17.29-27.69-33.692v-.003h8.207l-7.612-6.25-11.635-9.556-10.527 8.65L0 61.828h8.22v.005c.002 27.492 20.558 50.34 47.644 55.017l-8.473-9.8z"/><path clip-path="url(#b)" fill="#68AB42" d="M74.024 9.62L71.18 6.16 66.117 0v5.934h-.005c-28.238.002-51.705 19.53-56.817 45.348l9.745-8.555L31.278 52.99c4.27-14.497 18.45-25.756 34.836-25.756h.003v11.248l7.907-9.624.534-.65 7.365-8.962-7.9-9.625z"/></svg>